<?xml version="1.0" encoding="UTF-8" standalone="no"?>
<!DOCTYPE svg  PUBLIC '-//W3C//DTD SVG 1.1//EN'  'http://www.w3.org/Graphics/SVG/1.1/DTD/svg11.dtd'>
<svg xmlns="http://www.w3.org/2000/svg">
<defs>
<font id="NYLICEffra-Regular" horiz-adv-x="545">
<font-face underline-position="-50" font-weight="400" descent="-200" panose-1="2 11 6 3 2 2 3 2 2 4" units-per-em="1000" unicode-range="U+0008-25CA" bbox="-146 -224 1222 870" x-height="465" underline-thickness="50" font-family="NYLICEffra" ascent="800" cap-height="667"/>
<missing-glyph horiz-adv-x="1000"/>
<glyph glyph-name=".notdef" horiz-adv-x="1000"/>
<glyph glyph-name=".null" horiz-adv-x="0"/>
<glyph glyph-name=".null" horiz-adv-x="0"/>
<glyph glyph-name=".null" horiz-adv-x="0"/>
<glyph glyph-name="nonmarkingreturn" horiz-adv-x="1000" unicode="	"/>
<glyph glyph-name="nonmarkingreturn" horiz-adv-x="1000" unicode=""/>
<glyph glyph-name="space" horiz-adv-x="181" unicode=" "/>
<glyph glyph-name="exclam" horiz-adv-x="258" unicode="!" d="M72 109h112v-109h-112v109zM78 667h100l-2 -475h-95z"/>
<glyph glyph-name="quotedbl" horiz-adv-x="364" unicode='&quot;' d="M218 667h86v-221h-86v221zM64 667h86v-221h-86v221z"/>
<glyph glyph-name="numbersign" horiz-adv-x="755" unicode="#" d="M433 236l41 153h-149l-41 -153h149zM184 164h-119v72h138l41 153h-119v72h138l44 164h82l-44 -164h148l44 164h82l-44 -164h114v-72h-134l-40 -153h113v-72h-133l-44 -164h-81l44 164h-149l-44 -164h-81z"/>
<glyph glyph-name="dollar" d="M251 562q-55 -5 -78 -30.5t-23 -57.5q0 -18 4 -32t15.5 -25.5t31 -21.5t50.5 -19v186zM313 68q51 7 74.5 32t23.5 69q0 37 -20.5 60.5t-77.5 43.5v-205zM95 156q13 -15 28.5 -29.5t34.5 -27t42 -21t51 -11.5v223q-35 10 -69 22.5t-60.5 33t-42.5 51t-16 75.5 q0 33 11.5 62t35 51.5t58.5 37t83 18.5v88h62v-88q39 -4 67 -15t48.5 -24.5t33 -26.5t19.5 -22l-64 -57q-11 14 -35 34.5t-69 28.5v-198q37 -9 70.5 -24t59.5 -37.5t41.5 -55.5t15.5 -78q0 -37 -14 -68t-38.5 -54t-59 -37.5t-75.5 -19.5v-88h-62v86q-43 3 -78 14t-62 27 t-47 34.5t-33 35.5z" unicode="$"/>
<glyph glyph-name="percent" horiz-adv-x="892" unicode="%" d="M603 630h85l-405 -630h-85zM689 55q14 0 27.5 6t24.5 20t18 36.5t7 55.5t-7 55.5t-18 36t-24.5 19.5t-27.5 6t-28 -6t-25 -19.5t-18 -36t-7 -55.5t7 -55.5t18 -36.5t25 -20t28 -6zM689 -8q-68 0 -111.5 46t-43.5 135t43.5 134.5t111.5 45.5q34 0 62.5 -11.5t49 -34 t32 -56t11.5 -78.5q0 -89 -43.5 -135t-111.5 -46zM202 349q14 0 27.5 6t24.5 20t18 36.5t7 55.5t-7 55.5t-18 36t-24.5 19.5t-27.5 6t-28 -6t-25 -19.5t-18 -36t-7 -55.5t7 -55.5t18 -36.5t25 -20t28 -6zM202 286q-68 0 -111.5 46t-43.5 135t43.5 134.5t111.5 45.5 q34 0 62.5 -11.5t49 -34t32 -56t11.5 -78.5q0 -89 -43.5 -135t-111.5 -46z"/>
<glyph glyph-name="ampersand" horiz-adv-x="638" unicode="&amp;" d="M228 319q-52 -36 -73.5 -68.5t-21.5 -76.5q0 -45 30 -75t88 -30q46 0 77.5 20.5t56.5 49.5zM441 73q-35 -37 -80.5 -63t-113.5 -26q-51 0 -90.5 14.5t-66 40t-40 59t-13.5 71.5q0 63 34 114t104 99l-12 15q-24 30 -37 62t-13 68q0 30 12 58.5t34.5 50.5t55.5 35t75 13 q38 0 65.5 -9.5t48 -25t34 -35t23.5 -40.5l-67 -43q-26 45 -49.5 59.5t-49.5 14.5q-43 0 -65 -23t-22 -54q0 -27 14.5 -52.5t38.5 -53.5l182 -213l87 111l68 -54l-99 -124l122 -142h-116z"/>
<glyph glyph-name="quotesingle" horiz-adv-x="202" unicode="&apos;" d="M58 667h86v-221h-86v221z"/>
<glyph glyph-name="parenleft" horiz-adv-x="290" unicode="(" d="M164 -93q-13 22 -30.5 59.5t-33 88.5t-26.5 114.5t-11 136.5t11 136.5t26.5 114.5t33 89t30.5 60h88q-16 -29 -32.5 -70t-29.5 -92t-21.5 -111t-8.5 -127q0 -66 8.5 -126t21.5 -111t29.5 -92t32.5 -70h-88z"/>
<glyph glyph-name="parenright" horiz-adv-x="290" unicode=")" d="M39 -93q16 29 32 70t29.5 92t22 111t8.5 126q0 67 -8.5 127t-22 111t-29.5 92t-32 70h87q13 -22 30 -60t33 -89t27 -114.5t11 -136.5t-11 -136.5t-27 -114.5t-33 -88.5t-30 -59.5h-87z"/>
<glyph glyph-name="asterisk" horiz-adv-x="501" unicode="*" d="M63 451l125 67l-125 66l36 63l121 -76l-6 143h73l-5 -143l120 76l36 -63l-125 -66l125 -67l-36 -63l-120 76l5 -142h-73l6 142l-121 -76z"/>
<glyph glyph-name="plus" d="M73 360h161v157h78v-157h160v-78h-159v-157h-79v157h-161v78z" unicode="+"/>
<glyph glyph-name="comma" horiz-adv-x="255" unicode="," d="M117 0h-40v111h113v-110l-69 -118h-55z"/>
<glyph glyph-name="hyphen" horiz-adv-x="439" unicode="-" d="M73 323h293v-86h-293v86z"/>
<glyph glyph-name="period" horiz-adv-x="256" unicode="." d="M71 111h113v-112h-113v112z"/>
<glyph glyph-name="slash" horiz-adv-x="406" unicode="/" d="M291 685h89l-264 -701h-91z"/>
<glyph glyph-name="zero" d="M272 69q36 0 63.5 18.5t46 52t28 80t9.5 102.5q0 55 -9.5 100t-28.5 76.5t-46 48.5t-63 17t-63 -17t-45.5 -48.5t-28 -76.5t-9.5 -100q0 -56 9.5 -102.5t28 -80t45.5 -52t63 -18.5zM272 -14q-59 0 -103.5 24t-75 68t-46 106t-15.5 138q0 75 15.5 135t46.5 102.5 t75.5 65.5t103.5 23q58 0 103 -23t75.5 -65.5t46 -102.5t15.5 -135q0 -76 -15.5 -138t-46.5 -106t-76 -68t-103 -24z" unicode="0"/>
<glyph glyph-name="one" d="M141 80h112v455l-130 -70l-37 71l177 97h81v-553h110v-80h-313v80z" unicode="1"/>
<glyph glyph-name="two" d="M68 65q0 53 25 93t60 75q43 43 81.5 74t67.5 57t45.5 51.5t16.5 58.5q0 15 -5.5 31t-18.5 29.5t-33 22.5t-50 9q-27 0 -48 -7.5t-37 -18.5t-27 -25t-20 -26l-67 48q10 18 27.5 37.5t42 36t58 27t77.5 10.5q51 0 88.5 -14t61.5 -37.5t36 -53.5t12 -63q0 -35 -12 -65.5 t-32 -56.5t-45.5 -49.5t-52.5 -44.5q-32 -25 -59.5 -48t-48 -45t-32 -44t-11.5 -45h300v-82h-400v65z" unicode="2"/>
<glyph glyph-name="three" d="M87 118q25 -20 59 -37.5t86 -17.5q63 0 100 34t37 91q0 51 -31.5 84t-92.5 33q-18 0 -33 -3t-29 -8l-29 47l177 206h-252v83h362v-72l-162 -189q42 0 76 -13t58.5 -37t37.5 -57.5t13 -74.5q0 -50 -18 -88t-49.5 -63.5t-74 -39t-91.5 -13.5q-36 0 -66 6t-54 16t-43 22.5 t-34 25.5z" unicode="3"/>
<glyph glyph-name="four" d="M339 209v301l-201 -301h201zM49 208l286 423h91v-422h68v-78h-68v-131h-87v131h-290v77z" unicode="4"/>
<glyph glyph-name="five" d="M89 118q28 -23 61.5 -38.5t83.5 -15.5q35 0 61 10.5t43.5 28.5t26 42t8.5 52q0 19 -6 41t-21 40.5t-41 30.5t-66 12q-41 0 -65 -8t-44 -18l-46 35l60 300h309v-84h-246l-29 -165q10 6 32 11.5t53 5.5q45 0 82.5 -13t64.5 -38.5t42 -62t15 -84.5q0 -44 -14 -83t-43 -69 t-74 -47.5t-107 -17.5q-66 0 -112.5 20t-78.5 49z" unicode="5"/>
<glyph glyph-name="six" d="M154 273q0 -99 31 -154.5t102 -55.5q24 0 46 9t39 26t27 42t10 57q0 54 -27.5 89.5t-89.5 35.5q-48 0 -81.5 -14.5t-56.5 -34.5zM437 534q-3 2 -11.5 7t-22.5 10.5t-32.5 10t-40.5 4.5q-42 0 -74 -18t-54 -48t-34 -68.5t-13 -79.5q22 15 57 32.5t89 17.5q91 0 142.5 -54 t51.5 -153q0 -47 -15.5 -86t-43 -67t-65.5 -43.5t-83 -15.5q-106 0 -165.5 75t-59.5 227q0 84 17.5 151t52 114t84.5 72t116 25q51 0 88.5 -15t56.5 -27z" unicode="6"/>
<glyph glyph-name="seven" d="M140 0q23 71 55 151.5t65.5 156.5t65 139t53.5 99h-310v85h403v-82q-15 -23 -34.5 -62t-42 -86.5t-46 -101.5t-44.5 -107t-39 -103t-29 -89h-97z" unicode="7"/>
<glyph glyph-name="eight" d="M176 344q-40 21 -68 56t-28 86q0 35 13.5 65t38.5 51.5t60.5 33.5t80.5 12q47 0 83 -12t60 -33t36.5 -49.5t12.5 -61.5q0 -47 -26 -85t-74 -60q18 -8 41.5 -22t44.5 -36t35.5 -51.5t14.5 -67.5q0 -32 -12.5 -65t-40 -60t-71 -44t-104.5 -17q-63 0 -106.5 17t-70.5 44 t-39.5 59.5t-12.5 64.5q0 33 11 60t29.5 49t42.5 38.5t49 27.5zM269 302q-27 -7 -51 -19.5t-42 -29t-28.5 -37t-10.5 -44.5q0 -30 12.5 -51.5t32 -35t43.5 -19.5t48 -6t48 6t43.5 19.5t31.5 35t12 51.5q0 24 -11.5 44.5t-31 37t-44.5 29t-52 19.5zM273 379q48 15 77 44 t29 68q0 37 -29 61.5t-77 24.5t-77 -24.5t-29 -66.5q0 -34 27.5 -63t78.5 -44z" unicode="8"/>
<glyph glyph-name="nine" d="M390 357q0 98 -31.5 154t-101.5 56q-24 0 -46.5 -8.5t-39.5 -25.5t-28 -42t-11 -57q0 -26 7 -48.5t21.5 -39.5t37.5 -27t56 -10q50 0 81.5 14t54.5 34zM106 99q3 -2 13 -7.5t25.5 -11.5t35 -10.5t41.5 -4.5q42 0 73 17.5t51.5 46.5t31 67.5t12.5 79.5q-18 -15 -53.5 -32 t-94.5 -17q-45 0 -81 15.5t-61.5 43t-39 65.5t-13.5 84q0 47 16 86t44 67.5t66.5 44t83.5 15.5q106 0 165.5 -75.5t59.5 -227.5q0 -83 -16.5 -149.5t-49.5 -113t-82 -72t-114 -25.5q-26 0 -49.5 4.5t-43.5 10.5t-35 13t-24 13z" unicode="9"/>
<glyph glyph-name="colon" horiz-adv-x="256" unicode=":" d="M73 466h113v-112h-113v112zM73 111h113v-112h-113v112z"/>
<glyph glyph-name="semicolon" horiz-adv-x="263" unicode=";" d="M120 0h-40v111h113v-110l-69 -118h-55zM80 466h113v-112h-113v112z"/>
<glyph glyph-name="less" d="M71 349l366 192l34 -68l-295 -153l295 -153l-34 -68l-366 192v58z" unicode="&lt;"/>
<glyph glyph-name="equal" d="M73 442h399v-78h-399v78zM73 268h399v-78h-399v78z" unicode="="/>
<glyph glyph-name="greater" d="M73 167l295 153l-295 153l34 68l366 -192v-58l-366 -192z" unicode="&gt;"/>
<glyph glyph-name="question" horiz-adv-x="506" unicode="?" d="M177 220q0 54 22 97t73 80q16 12 32.5 24.5t29.5 26.5t21 31t8 37q0 38 -31 61.5t-82 23.5q-28 0 -51 -7t-42 -17t-33 -22.5t-24 -22.5l-60 55q9 12 26 28.5t43 31.5t61 26t80 11q49 0 87 -13.5t64.5 -36.5t40 -53.5t13.5 -64.5q0 -29 -7 -51.5t-20 -42t-32 -36.5 t-43 -35q-20 -15 -36 -27.5t-27 -27.5t-17 -33.5t-6 -43.5v-27h-90v28zM167 110h111v-110h-111v110z"/>
<glyph glyph-name="at" horiz-adv-x="956" unicode="@" d="M587 220q-10 2 -37 4.5t-69 2.5q-36 0 -60 -9t-37.5 -22.5t-19 -29.5t-5.5 -31q0 -35 25.5 -55t72.5 -20q25 0 48.5 8t41.5 22.5t29 33.5t11 40v56zM183 -14q-23 17 -47 45t-43.5 65.5t-32 84t-12.5 100.5q0 102 36 178t96 126.5t137.5 75t161.5 24.5q91 0 170 -24.5 t136.5 -73t90.5 -121.5t33 -170q0 -92 -21 -152t-51.5 -95.5t-66 -50t-65.5 -14.5q-16 0 -32.5 3.5t-31 11t-25.5 20.5t-17 33q-41 -41 -83 -54t-87 -13q-26 0 -54 8t-51 26t-38 46t-15 67q0 75 52.5 120.5t151.5 45.5q38 0 66.5 -2t45.5 -4v17q0 48 -30.5 70.5t-82.5 22.5 q-54 0 -85.5 -14.5t-52.5 -29.5l-43 62q13 11 30.5 21.5t40.5 19t52.5 14t67.5 5.5q88 0 139.5 -43t51.5 -124v-201q0 -28 12.5 -39.5t31.5 -11.5q17 0 36 12.5t34.5 40.5t25.5 73.5t10 111.5q0 82 -28.5 141t-76.5 97t-111.5 56t-132.5 18q-59 0 -119.5 -17t-109.5 -55.5 t-80.5 -100.5t-31.5 -152q0 -51 10.5 -91t26.5 -70t33.5 -51t32.5 -34z"/>
<glyph glyph-name="A" horiz-adv-x="641" unicode="A" d="M425 267l-108 293l-109 -293h217zM271 667h98l261 -667h-107l-69 186h-274l-69 -186h-101z"/>
<glyph glyph-name="B" horiz-adv-x="590" unicode="B" d="M285 83q26 0 54 3t51.5 14t38.5 32.5t15 59.5q0 36 -14.5 58t-37 35t-49.5 17.5t-52 4.5h-122v-224h116zM288 389q22 0 44 5.5t40 17.5t29 31t11 46q0 30 -11 48.5t-29 29t-40 14t-44 3.5h-119v-195h119zM76 667h226q52 0 90 -13.5t63 -36.5t37.5 -54t12.5 -66 q0 -32 -11.5 -58t-28 -44t-36 -29t-35.5 -13q21 -3 46.5 -12.5t47.5 -28.5t37 -49.5t15 -75.5q0 -54 -19.5 -89.5t-53 -57.5t-79.5 -31t-98 -9h-214v667z"/>
<glyph glyph-name="C" horiz-adv-x="677" unicode="C" d="M642 117q-11 -18 -34 -41t-56 -43.5t-76 -34.5t-95 -14q-74 0 -135 26t-105 72.5t-68.5 110t-24.5 138.5q0 73 24.5 137t68.5 112t105.5 75.5t136.5 27.5q53 0 95 -13t73.5 -32.5t54 -42.5t36.5 -44l-68 -58q-12 17 -28.5 35.5t-39.5 33.5t-53 25t-69 10q-55 0 -98.5 -21 t-74 -57t-46.5 -84t-16 -102t16.5 -101.5t46.5 -82.5t73 -55t96 -20q45 0 77.5 11.5t55 27.5t37 32.5t24.5 27.5z"/>
<glyph glyph-name="D" horiz-adv-x="715" unicode="D" d="M296 86q125 0 194.5 61.5t69.5 182.5q0 122 -67 186.5t-200 64.5h-121v-495h124zM76 667h223q79 0 145.5 -19.5t114.5 -61t75 -104.5t27 -150q0 -84 -27 -146.5t-75 -104t-115 -61.5t-146 -20h-222v667z"/>
<glyph glyph-name="E" horiz-adv-x="564" unicode="E" d="M76 667h420v-85h-324v-194h244v-86h-244v-216h348v-86h-444v667z"/>
<glyph glyph-name="F" horiz-adv-x="529" unicode="F" d="M76 667h419v-86h-323v-204h246v-85h-246v-292h-96v667z"/>
<glyph glyph-name="G" horiz-adv-x="721" unicode="G" d="M417 339h234v-266q-19 -17 -43.5 -33t-57 -28.5t-72.5 -20t-90 -7.5q-78 0 -140.5 26.5t-107 73t-68 110t-23.5 138.5q0 73 24.5 137t68.5 111.5t105.5 75t136.5 27.5q53 0 95 -12.5t73.5 -32t53.5 -42.5t37 -44l-68 -58q-12 17 -29 35.5t-40 33.5t-52.5 25t-67.5 10 q-55 0 -99 -21t-74.5 -57t-47 -84.5t-16.5 -102.5q0 -58 18 -106t50.5 -82.5t76.5 -54t97 -19.5q58 0 98.5 13t69.5 36v136h-142v83z"/>
<glyph glyph-name="H" horiz-adv-x="709" unicode="H" d="M76 667h96v-279h365v279h96v-667h-96v302h-365v-302h-96v667z"/>
<glyph glyph-name="I" horiz-adv-x="248" unicode="I" d="M76 667h96v-667h-96v667z"/>
<glyph glyph-name="J" horiz-adv-x="494" unicode="J" d="M82 135q29 -33 58.5 -48t70.5 -15q24 0 44.5 7.5t36.5 23.5t25 41t9 60v463h96v-471q0 -58 -17 -98.5t-45.5 -66t-66.5 -37t-80 -11.5q-74 0 -121 26t-78 66z"/>
<glyph glyph-name="K" horiz-adv-x="603" unicode="K" d="M76 667h95v-303l279 303h110l-248 -272l278 -395h-115l-228 327l-76 -82v-245h-95v667z"/>
<glyph glyph-name="L" horiz-adv-x="548" unicode="L" d="M76 667h96v-582h347v-85h-443v667z"/>
<glyph glyph-name="M" horiz-adv-x="787" unicode="M" d="M99 667h92l203 -347l203 347h90l31 -667h-94l-22 512l-188 -315h-48l-185 311l-23 -508h-90z"/>
<glyph glyph-name="N" horiz-adv-x="707" unicode="N" d="M76 667h97l364 -521v521h94v-667h-96l-365 522v-522h-94v667z"/>
<glyph glyph-name="O" horiz-adv-x="779" unicode="O" d="M389 73q55 0 99.5 21t76 57t48.5 83.5t17 100.5q0 54 -17 101.5t-48.5 83.5t-76 56.5t-99.5 20.5t-99 -20.5t-75.5 -56.5t-48.5 -83.5t-17 -101.5q0 -53 17 -100.5t48.5 -83.5t75.5 -57t99 -21zM389 -17q-72 0 -134 27.5t-108 75t-72 111.5t-26 137t26 136.5t71.5 111 t108 75t134.5 27.5t134.5 -27.5t108.5 -75t72 -111t26 -136.5t-26 -137t-72 -111.5t-108.5 -75t-134.5 -27.5z"/>
<glyph glyph-name="P" horiz-adv-x="566" unicode="P" d="M291 344q62 0 95.5 31.5t33.5 87.5q0 57 -34.5 89.5t-94.5 32.5h-120v-241h120zM76 667h211q68 0 112.5 -19t71 -48t37 -65t10.5 -70q0 -50 -17 -88t-47 -63.5t-71.5 -38.5t-90.5 -13h-121v-262h-95v667z"/>
<glyph glyph-name="Q" horiz-adv-x="779" unicode="Q" d="M408 197l60 50l85 -106q36 35 56 85.5t20 108.5q0 54 -17 101.5t-48.5 83t-75.5 56.5t-99 21t-99 -21t-75.5 -56.5t-48.5 -83t-17 -101.5t17 -101.5t48.5 -83.5t75.5 -57t99 -21t102 22zM549 22q-35 -18 -75.5 -28.5t-84.5 -10.5q-72 0 -134.5 27.5t-108.5 74.5t-72 111 t-26 137t26 137t72 111.5t108.5 75t134.5 27.5t134.5 -27.5t108.5 -75t72 -111.5t26 -137q0 -81 -31.5 -149.5t-86.5 -116.5l80 -97l-59 -50z"/>
<glyph glyph-name="R" horiz-adv-x="590" unicode="R" d="M297 354q63 0 94.5 31t31.5 83q0 55 -34 85.5t-94 30.5h-126v-230h128zM76 667h213q64 0 108 -17.5t71.5 -45t40 -62.5t12.5 -71q0 -64 -30 -113t-93 -73l156 -285h-108l-143 273h-134v-273h-93v667z"/>
<glyph glyph-name="S" horiz-adv-x="582" unicode="S" d="M105 162q14 -16 31.5 -32.5t39.5 -29.5t49 -21t59 -8q66 0 103 30t37 81q0 55 -42 82.5t-121 44.5q-43 9 -78 25t-60.5 40t-39.5 55.5t-14 71.5q0 37 14 70t42 58t70 40t97 15q49 0 84.5 -10.5t60.5 -25.5t40 -31t23 -26l-64 -59q-6 7 -18 18.5t-30.5 22.5t-43 18.5 t-56.5 7.5t-55 -8.5t-38 -22t-22 -30.5t-7 -34q0 -25 10.5 -42.5t30.5 -31t49.5 -23t67.5 -18.5q37 -9 72.5 -23.5t63.5 -39t44.5 -60t16.5 -86.5q0 -43 -18 -79t-49.5 -62.5t-74.5 -41t-93 -14.5q-47 0 -85.5 11t-70 28t-55 37.5t-38.5 40.5z"/>
<glyph glyph-name="T" horiz-adv-x="621" unicode="T" d="M263 583h-239v84h573v-84h-238v-583h-96v583z"/>
<glyph glyph-name="U" horiz-adv-x="673" unicode="U" d="M71 667h96v-390q0 -45 8 -82.5t27.5 -64.5t52 -41.5t82.5 -14.5q49 0 81.5 14.5t52 41.5t27.5 64.5t8 82.5v390h96v-413q0 -57 -16 -106.5t-48.5 -86t-82.5 -57.5t-118 -21t-118 21t-83 57.5t-49 86t-16 106.5v413z"/>
<glyph glyph-name="V" horiz-adv-x="634" unicode="V" d="M10 667h107l203 -548l203 548h101l-258 -667h-98z"/>
<glyph glyph-name="W" horiz-adv-x="878" unicode="W" d="M17 667h106l128 -538l145 518h93l142 -517l128 537h100l-179 -667h-102l-139 493l-143 -493h-101z"/>
<glyph glyph-name="X" horiz-adv-x="598" unicode="X" d="M242 345l-220 322h116l162 -243l160 243h105l-214 -319l237 -348h-115l-179 269l-179 -269h-106z"/>
<glyph glyph-name="Y" horiz-adv-x="577" unicode="Y" d="M239 298l-230 369h107l174 -285l174 285h103l-231 -369v-298h-97v298z"/>
<glyph glyph-name="Z" horiz-adv-x="642" unicode="Z" d="M51 84l415 498h-395v85h512v-85l-410 -497h417v-85h-539v84z"/>
<glyph glyph-name="bracketleft" horiz-adv-x="315" unicode="[" d="M78 706h211v-81h-121v-635h121v-83h-211v799z"/>
<glyph glyph-name="backslash" horiz-adv-x="406" unicode="\" d="M25 685h89l266 -701h-91z"/>
<glyph glyph-name="bracketright" horiz-adv-x="315" unicode="]" d="M25 -10h121v635h-121v81h212v-799h-212v83z"/>
<glyph glyph-name="asciicircum" horiz-adv-x="549" unicode="^" d="M234 667h81l177 -359h-91l-127 268l-127 -268h-90z"/>
<glyph glyph-name="underscore" horiz-adv-x="505" unicode="_" d="M2 -70h500v-51h-500v51z"/>
<glyph glyph-name="grave" horiz-adv-x="447" unicode="`" d="M135 677h100l53 -136h-75z"/>
<glyph glyph-name="a" horiz-adv-x="499" unicode="a" d="M353 56q-26 -35 -68.5 -52t-87.5 -17q-29 0 -57.5 7.5t-52 25t-38 45t-14.5 67.5q0 75 52.5 120t151.5 45q16 0 34 -1t34 -2t28 -2t17 -2v17q0 52 -31.5 74.5t-85.5 22.5q-53 0 -84 -14.5t-52 -29.5l-42 61q12 10 29 20t40 18.5t52 14t67 5.5q90 0 141.5 -43.5 t51.5 -123.5v-220v-50.5t1 -41.5h-84zM352 220q-4 1 -15.5 2.5t-26.5 2.5t-32 2t-33 1q-38 0 -61.5 -9t-37 -22.5t-18.5 -30t-5 -31.5q0 -38 26 -57.5t72 -19.5q26 0 49.5 9t41.5 24t29 35t11 41v53z"/>
<glyph glyph-name="b" horiz-adv-x="548" unicode="b" d="M151 77q14 -4 34.5 -8.5t60.5 -4.5q39 0 70 12.5t53.5 35t34.5 54t12 68.5q0 32 -7.5 61.5t-24 52t-41.5 36t-61 13.5q-33 0 -57.5 -11.5t-41 -30t-24.5 -43t-8 -50.5v-185zM62 667h90v-253q7 9 19.5 20t30.5 20.5t41.5 15.5t52.5 6q52 0 91.5 -18.5t66.5 -51t40.5 -76.5 t13.5 -94q0 -55 -19 -101t-53.5 -79t-82.5 -51.5t-106 -18.5q-57 0 -106 9t-79 21v651z"/>
<glyph glyph-name="c" horiz-adv-x="493" unicode="c" d="M466 64q-31 -35 -76.5 -56.5t-105.5 -21.5q-56 0 -101.5 18.5t-77 51t-48.5 78t-17 99.5q0 51 18 96t50.5 78.5t77 53t98.5 19.5q59 0 104 -21t77 -57l-59 -57q-21 26 -51 41t-71 15q-36 0 -64.5 -13.5t-48 -37t-30 -54t-10.5 -63.5q0 -32 10.5 -62.5t30 -54t48 -37.5 t64.5 -14q41 0 73.5 15.5t53.5 41.5z"/>
<glyph glyph-name="d" horiz-adv-x="550" unicode="d" d="M397 59q-5 -6 -16.5 -18.5t-30.5 -24.5t-44.5 -21t-59.5 -9q-44 0 -82 17t-66 48t-43.5 75.5t-15.5 99.5q0 66 23 113.5t58.5 78t77 44.5t78.5 14q50 0 78 -12t43 -18v221h90v-566v-53.5t1 -47.5h-88zM397 362q-10 8 -37 21.5t-77 13.5q-33 0 -60.5 -12t-48 -34t-32 -54 t-11.5 -72q0 -33 8 -62.5t24.5 -51.5t42 -34.5t60.5 -12.5t60 13t40.5 32.5t23 43t7.5 43.5v166z"/>
<glyph glyph-name="e" horiz-adv-x="536" unicode="e" d="M405 273q-4 54 -38 92t-96 38q-32 0 -57.5 -11t-43.5 -29t-28 -41.5t-11 -48.5h274zM486 68q-8 -9 -24 -23t-41.5 -27t-60 -22.5t-78.5 -9.5q-54 0 -99 18t-77 51t-49.5 79t-17.5 102q0 51 17 95.5t48 77t73.5 51.5t93.5 19q60 0 103 -23t70.5 -61t40.5 -87t13 -102h-367 q1 -31 13.5 -57t33.5 -45t48 -30t57 -11q59 0 97 20t55 39z"/>
<glyph glyph-name="f" horiz-adv-x="330" unicode="f" d="M97 390h-84v75h84v38q0 47 13.5 81.5t36 56.5t51.5 32.5t61 10.5q37 0 72.5 -11.5t65.5 -39.5l-45 -58q-37 31 -79 31q-39 0 -62.5 -25t-23.5 -86v-30h133v-75h-133v-390h-90v390z"/>
<glyph glyph-name="g" horiz-adv-x="547" unicode="g" d="M124 -95q23 -16 56.5 -27.5t81.5 -11.5q67 0 100 37t33 97v57q-7 -6 -18.5 -16.5t-29 -20t-41.5 -17t-55 -7.5q-51 0 -90.5 17.5t-66.5 48t-41 73t-14 92.5q0 54 19 99.5t53.5 79t82.5 52t107 18.5q57 0 106 -10t79 -22v-444q0 -101 -58.5 -156.5t-164.5 -55.5 q-71 0 -113 15.5t-68 35.5zM396 383q-9 3 -30.5 8.5t-64.5 5.5q-38 0 -69 -12.5t-53.5 -35t-35 -53.5t-12.5 -68q0 -32 7.5 -60t24 -49t41.5 -33t61 -12q33 0 58 10t41 26.5t24 37t8 42.5v193z"/>
<glyph glyph-name="h" horiz-adv-x="543" unicode="h" d="M61 667h89v-271q9 12 22 26t32 26t44 20t57 8q91 0 135 -53t44 -144v-279h-90v272q0 65 -28 95.5t-79 30.5q-39 0 -65 -16t-41.5 -41.5t-22.5 -58t-7 -66.5v-216h-90v667z"/>
<glyph glyph-name="i" horiz-adv-x="222" unicode="i" d="M66 465h90v-465h-90v465zM60 649h101v-101h-101v101z"/>
<glyph glyph-name="j" horiz-adv-x="222" unicode="j" d="M60 649h101v-101h-101v101zM-53 -101q12 -9 25.5 -15t32.5 -6q35 0 48 33.5t13 107.5v446h90v-471q0 -38 -5.5 -73t-20.5 -62t-43 -43t-73 -16q-37 0 -62.5 12t-41.5 25z"/>
<glyph glyph-name="k" horiz-adv-x="489" unicode="k" d="M61 667h90v-393l195 191h108l-176 -172l202 -293h-107l-158 233l-64 -62v-171h-90v667z"/>
<glyph glyph-name="l" horiz-adv-x="214" unicode="l" d="M62 667h90v-667h-90v667z"/>
<glyph glyph-name="m" horiz-adv-x="850" unicode="m" d="M62 364v53.5t-1 47.5h86l3 -70q8 12 21 26.5t31 26.5t42.5 20t56.5 8q54 0 89.5 -21.5t55.5 -62.5q28 33 68.5 58.5t100.5 25.5q90 0 133 -53.5t43 -143.5v-279h-90v272q0 65 -25.5 95.5t-74.5 30.5q-28 0 -51.5 -11.5t-41 -30.5t-27 -44.5t-9.5 -53.5v-258h-90v272 q0 65 -25.5 95.5t-73.5 30.5q-37 0 -62 -16t-40.5 -41.5t-22 -58.5t-6.5 -66v-216h-90v364z"/>
<glyph glyph-name="n" horiz-adv-x="544" unicode="n" d="M62 364v53.5t-1 47.5h86l3 -70q9 12 22 26.5t32 26.5t44.5 20t57.5 8q91 0 135 -53t44 -144v-279h-90v272q0 65 -28 95.5t-79 30.5q-39 0 -65 -16t-41.5 -41.5t-22.5 -58t-7 -66.5v-216h-90v364z"/>
<glyph glyph-name="o" horiz-adv-x="572" unicode="o" d="M286 64q36 0 65 14.5t49 38t30.5 54t10.5 62.5q0 31 -10.5 61.5t-31 54.5t-49 38.5t-64.5 14.5t-65 -14.5t-49 -38t-30.5 -54t-10.5 -62.5t10.5 -62t31 -54t49 -38.5t64.5 -14.5zM286 -14q-54 0 -99 19.5t-77.5 53.5t-51 78.5t-18.5 95.5t18.5 95.5t51 78.5t77.5 53.5 t99 19.5q53 0 98 -19.5t78 -53.5t51.5 -78.5t18.5 -95.5t-18.5 -95.5t-51.5 -78.5t-78 -53.5t-98 -19.5z"/>
<glyph glyph-name="p" horiz-adv-x="558" unicode="p" d="M151 101q16 -13 46 -25t75 -12q34 0 62.5 12.5t49 35t31.5 52.5t11 66q0 34 -7.5 64t-24 53t-42.5 36.5t-64 13.5q-48 0 -82 -26.5t-48 -77.5q-5 -16 -6 -34.5t-1 -38.5v-119zM62 364v53.5t-1 47.5h86l3 -66q7 9 20 22t32.5 25t45.5 20.5t60 8.5q54 0 93.5 -20t65.5 -54 t38.5 -78t12.5 -93q0 -63 -21.5 -109t-56 -76t-77 -44.5t-83.5 -14.5q-47 0 -75.5 9.5t-53.5 20.5v-216h-89v564z"/>
<glyph glyph-name="q" horiz-adv-x="548" unicode="q" d="M396 383q-9 3 -30.5 8.5t-64.5 5.5q-80 0 -125 -46.5t-45 -122.5q0 -32 7.5 -61.5t24 -52t41.5 -36.5t61 -14q34 0 58.5 10t40.5 27t24 39.5t8 47.5v195zM395 46q-4 -5 -14.5 -14.5t-27.5 -20t-40.5 -18t-54.5 -7.5q-54 0 -95 19t-68.5 51.5t-41.5 76.5t-14 94 q0 54 19 99.5t53.5 79t82.5 52t107 18.5q57 0 105.5 -10t78.5 -22v-644h-90v246z"/>
<glyph glyph-name="r" horiz-adv-x="364" unicode="r" d="M62 370v50.5t-1 44.5h86l3 -75q8 12 21 26.5t31.5 26.5t43 20.5t56.5 8.5q15 0 27.5 -2t23.5 -6l-20 -84q-18 7 -46 7q-29 0 -53.5 -11t-42.5 -30.5t-28.5 -45.5t-10.5 -55v-245h-90v370z"/>
<glyph glyph-name="s" horiz-adv-x="472" unicode="s" d="M92 117q25 -25 60 -40t81 -15q45 0 75 14.5t30 45.5q0 16 -6.5 27.5t-22 20.5t-41 16.5t-63.5 16.5q-27 6 -53.5 16t-47.5 26.5t-34 40t-13 56.5q0 34 15.5 59.5t41.5 43t58.5 26.5t67.5 9q59 0 101.5 -15.5t74.5 -43.5l-49 -62q-21 19 -52.5 32t-73.5 13q-43 0 -69 -14 t-26 -46q0 -30 34.5 -44.5t90.5 -27.5q33 -8 61.5 -18.5t50 -27t34 -40.5t12.5 -58q0 -35 -16 -61.5t-43 -44.5t-62 -27t-73 -9q-132 0 -198 71z"/>
<glyph glyph-name="t" horiz-adv-x="384" unicode="t" d="M102 390h-84v75h84v152h90v-152h136v-75h-136v-229q0 -56 17.5 -77t49.5 -21q26 0 43 8t34 24l41 -55q-29 -28 -59.5 -40.5t-72.5 -12.5q-74 0 -108.5 40t-34.5 125v238z"/>
<glyph glyph-name="u" horiz-adv-x="542" unicode="u" d="M59 465h90v-273q0 -66 27 -95.5t78 -29.5q39 0 64.5 16t41.5 41.5t22.5 58t6.5 66.5v216h90v-364v-53.5t1 -47.5h-86l-3 69q-9 -12 -22 -26t-32 -25.5t-44 -19.5t-57 -8q-91 0 -134 52.5t-43 143.5v279z"/>
<glyph glyph-name="v" horiz-adv-x="502" unicode="v" d="M6 465h103l145 -363l144 363h97l-199 -465h-90z"/>
<glyph glyph-name="w" horiz-adv-x="722" unicode="w" d="M11 465h99l104 -355l112 355h77l112 -358l102 358h93l-154 -465h-89l-108 325l-107 -325h-84z"/>
<glyph glyph-name="x" horiz-adv-x="487" unicode="x" d="M188 240l-167 225h112l112 -154l110 154h100l-162 -218l185 -247h-113l-129 176l-127 -176h-101z"/>
<glyph glyph-name="y" horiz-adv-x="502" unicode="y" d="M64 -114q10 -9 23 -16t32 -7q16 0 27.5 7t21 21.5t18 35t19.5 47.5l12 30l-208 461h103l150 -351l132 351h98l-186 -453q-13 -32 -26.5 -70.5t-33.5 -73t-49 -57.5t-73 -23q-35 0 -59 9.5t-42 25.5z"/>
<glyph glyph-name="z" horiz-adv-x="476" unicode="z" d="M52 71l266 318h-257v76h367v-72l-271 -318h274v-75h-379v71z"/>
<glyph glyph-name="braceleft" horiz-adv-x="289" unicode="{" d="M107 198q-2 31 -20 54.5t-56 25.5v57q38 2 56 25.5t20 54.5l14 170q4 44 15 73t34 48h93q-19 -18 -33 -47.5t-16 -62.5l-15 -190q-3 -42 -23.5 -66.5t-49.5 -32.5q29 -8 49.5 -33t23.5 -67l15 -190q2 -33 16 -62.5t33 -47.5h-93q-23 19 -34 48t-15 73z"/>
<glyph glyph-name="bar" horiz-adv-x="233" unicode="|" d="M75 833h83v-997h-83v997z"/>
<glyph glyph-name="braceright" horiz-adv-x="289" unicode="}" d="M26 -93q19 18 33 47.5t16 62.5l15 190q3 42 23.5 67t49.5 33q-29 8 -49.5 32.5t-23.5 66.5l-15 190q-2 33 -16 62.5t-33 47.5h93q23 -19 34 -48t15 -73l14 -170q2 -31 20 -54.5t56 -25.5v-57q-38 -2 -56 -25.5t-20 -54.5l-14 -170q-4 -44 -15 -73t-34 -48h-93z"/>
<glyph glyph-name="asciitilde" horiz-adv-x="478" unicode="~" d="M435 302q-7 -8 -18.5 -18t-26.5 -20t-33.5 -16.5t-40.5 -6.5q-17 0 -33.5 5t-29.5 12q-20 11 -41.5 20t-52.5 9q-27 0 -46.5 -14.5t-29.5 -23.5q-11 14 -21 28.5t-21 28.5q7 7 18 17.5t26.5 20.5t35 17t42.5 7q26 0 45.5 -9.5t39.5 -20.5q13 -7 27.5 -12t31.5 -5 q32 0 53.5 14t33.5 25z"/>
<glyph glyph-name="uni00A0" horiz-adv-x="181" unicode=" "/>
<glyph glyph-name="exclamdown" horiz-adv-x="258" unicode="¡" d="M74 465h112v-109h-112v109zM82 273h95l3 -475h-100z"/>
<glyph glyph-name="cent" d="M277 477q-27 -7 -48 -23t-36 -38t-22.5 -48t-7.5 -54q0 -26 8 -52t22.5 -48t35.5 -39t48 -24v326zM277 69q-48 6 -86 27t-64.5 53t-40.5 74.5t-14 90.5q0 46 15 88t42 74.5t64.5 54t83.5 28.5v90h61v-89q51 -3 90 -23.5t68 -52.5l-59 -56q-18 22 -42.5 36t-56.5 18v-335 q34 4 60.5 18t44.5 37l55 -58q-29 -32 -69 -52.5t-91 -24.5v-86h-61v88z" unicode="¢"/>
<glyph glyph-name="sterling" d="M127 287h-73v76h73v81q0 27 7.5 62.5t29 67t61 53t103.5 21.5q36 0 64 -8.5t48.5 -20t34 -23.5t21.5 -19l-58 -64q-18 19 -42.5 35t-67.5 16q-30 0 -50.5 -11.5t-32.5 -30.5t-17 -44t-5 -53v-62h200v-76h-200v-201h289v-86h-385v287z" unicode="£"/>
<glyph glyph-name="currency" d="M145 334q0 -26 10 -49.5t27 -40.5t40.5 -27t49.5 -10t49.5 10t41 27t27.5 40.5t10 49.5t-10 49t-27.5 40.5t-41 27.5t-49.5 10t-49.5 -10t-40.5 -27.5t-27 -40.5t-10 -49zM37 158l65 66q-16 23 -24.5 51t-8.5 59q0 60 33 110l-65 65l55 56l65 -65q24 17 53.5 27t61.5 10 t61 -9.5t54 -26.5l65 64l55 -56l-65 -65q16 -24 25 -52t9 -58q0 -32 -9 -59.5t-25 -51.5l65 -65l-55 -56l-65 64q-50 -35 -115 -35q-67 0 -115 36l-65 -65z" unicode="¤"/>
<glyph glyph-name="yen" d="M72 186h156v60l-2 26h-154v61h118l-173 298h106l152 -283l151 283h102l-173 -298h122v-61h-157l-2 -26v-60h159v-61h-159v-125h-90v125h-156v61z" unicode="¥"/>
<glyph glyph-name="brokenbar" horiz-adv-x="233" unicode="¦" d="M75 833h83v-379h-83v379zM75 215h83v-379h-83v379z"/>
<glyph glyph-name="section" horiz-adv-x="463" unicode="§" d="M117 -93q28 -20 51 -28.5t52 -8.5q25 0 43.5 9t31 22.5t18.5 30.5t6 34q0 38 -20 63.5t-53 47.5l-189 125l49 74l190 -123q48 -32 80 -75.5t32 -101.5q0 -37 -12.5 -71t-37 -60t-60 -41.5t-80.5 -15.5q-27 0 -50 5.5t-41.5 14t-32 17.5l-22.5 15zM171 319q-49 32 -81 75 t-32 101q0 37 13 71.5t38 60.5t60 42t79 16q27 0 49.5 -6t40.5 -14t31 -17t21 -15l-45 -68q-26 20 -49.5 28.5t-49.5 8.5q-24 0 -42 -9t-31 -22.5t-19.5 -31t-6.5 -33.5q0 -38 19.5 -63.5t53.5 -47.5l189 -125l-49 -74z"/>
<glyph glyph-name="dieresis" horiz-adv-x="348" unicode="¨" d="M41 651h94v-91h-94v91zM212 651h93v-91h-93v91z"/>
<glyph glyph-name="copyright" horiz-adv-x="809" unicode="©" d="M562 225q-24 -35 -63.5 -58t-89.5 -23q-42 0 -77 14.5t-60 40t-38.5 60.5t-13.5 76q0 40 14 74.5t39.5 60t60 40t75.5 14.5q51 0 90 -23t63 -58l-54 -39q-15 21 -40 37t-56 16q-26 0 -47.5 -9.5t-37 -26t-24 -39t-8.5 -48.5q0 -24 8.5 -46t24 -38.5t37 -26.5t47.5 -10 q32 0 57.5 16.5t39.5 38.5zM404 53q59 0 109 21.5t86.5 59.5t57 89.5t20.5 110.5t-20.5 110.5t-57 89.5t-86.5 60t-108 22q-59 0 -109 -22t-87 -60t-57.5 -89.5t-20.5 -110.5t20.5 -110.5t57 -89.5t86.5 -59.5t109 -21.5zM404 -14q-73 0 -136.5 27t-110 74.5t-73.5 111 t-27 136.5t27 136.5t73.5 110.5t110 74.5t137.5 27.5q73 0 136 -27.5t109.5 -74.5t73.5 -110.5t27 -136.5t-27 -136.5t-73.5 -111t-110 -74.5t-136.5 -27z"/>
<glyph glyph-name="ordfeminine" horiz-adv-x="381" unicode="ª" d="M57 606q20 17 50.5 29.5t78.5 12.5q62 0 99 -29.5t37 -82.5v-139v-33t1 -28h-65q0 4 -0.5 12t-1.5 16q-17 -16 -44.5 -26t-51.5 -10q-21 0 -41 5t-36.5 16.5t-26.5 29.5t-10 45q0 51 37.5 78t103.5 27q17 0 34 -1t34 -3v8q0 55 -73 55q-32 0 -53.5 -9.5t-36.5 -20.5z M256 471q-11 2 -29.5 3t-35.5 1q-45 0 -61.5 -16t-16.5 -33q0 -41 60 -41q15 0 30 5t27 13t19 19.5t7 24.5v24z"/>
<glyph glyph-name="guillemotleft" horiz-adv-x="502" unicode="«" d="M242 238l105 193h89l-101 -193l101 -193h-89zM65 238l105 193h89l-101 -193l101 -193h-89z"/>
<glyph glyph-name="logicalnot" d="M73 361h399v-214h-79v136h-320v78z" unicode="¬"/>
<glyph glyph-name="uni00AD" horiz-adv-x="439" unicode="­" d="M75 323h293v-86h-293v86z"/>
<glyph glyph-name="registered" horiz-adv-x="809" unicode="®" d="M404 53q59 0 109 21.5t86.5 59.5t57 89.5t20.5 110.5t-20.5 110.5t-57 89.5t-86.5 60t-108 22q-59 0 -109 -22t-87 -60t-57.5 -89.5t-20.5 -110.5t20.5 -110.5t57 -89.5t86.5 -59.5t109 -21.5zM404 -14q-73 0 -136.5 27t-110 74.5t-73.5 111t-27 136.5t27 136.5 t73.5 110.5t110 74.5t137.5 27.5q73 0 136 -27.5t109.5 -74.5t73.5 -110.5t27 -136.5t-27 -136.5t-73.5 -111t-110 -74.5t-136.5 -27zM416 350q31 0 45 15t14 40q0 26 -15 39t-48 13h-62v-107h66zM283 513h136q33 0 56.5 -9.5t39 -24.5t22.5 -33.5t7 -36.5q0 -34 -17 -61.5 t-52 -41.5l86 -146h-76l-79 137h-56v-137h-67v353z"/>
<glyph glyph-name="macron" horiz-adv-x="349" unicode="¯" d="M50 637h250v-72h-250v72z"/>
<glyph glyph-name="degree" horiz-adv-x="332" unicode="°" d="M166 453q31 0 51.5 21t20.5 53q0 30 -20.5 51t-52.5 21q-30 0 -50.5 -21t-20.5 -52t20.5 -52t51.5 -21zM29 526q0 29 10.5 53.5t29 42.5t43 28t53.5 10t54 -10t43.5 -28t29 -42.5t10.5 -52.5q0 -29 -10.5 -53.5t-29 -42.5t-43.5 -28t-53 -10q-29 0 -54 10t-43.5 28 t-29 42t-10.5 53z"/>
<glyph glyph-name="plusminus" d="M73 78h399v-78h-399v78zM73 360h161v157h78v-157h160v-78h-159v-157h-79v157h-161v78z" unicode="±"/>
<glyph glyph-name="twosuperior" horiz-adv-x="360" unicode="²" d="M49 338q0 26 13 45.5t32.5 35.5t42 30t42 28t32.5 28.5t13 32.5q0 23 -16 33t-36 10q-26 0 -52 -12.5t-44 -28.5l-33 53q22 20 57.5 37t80.5 17q65 0 95.5 -31t30.5 -73q0 -41 -23.5 -66t-53.5 -43.5t-58 -34.5t-37 -39h173v-64h-259v42z"/>
<glyph glyph-name="threesuperior" horiz-adv-x="360" unicode="³" d="M70 378q17 -14 39 -22t48 -8q31 0 50.5 13.5t19.5 39.5q0 16 -6 26t-16 16t-23 8.5t-27 2.5q-11 0 -23 -1.5t-21 -4.5l-15 31l107 96h-142v62h228v-57l-88 -81q51 -5 76.5 -33t25.5 -70q0 -48 -39.5 -79t-105.5 -31q-38 0 -69 10t-55 27z"/>
<glyph glyph-name="acute" horiz-adv-x="401" unicode="´" d="M207 676h98l-77 -136h-75z"/>
<glyph glyph-name="mu" horiz-adv-x="542" unicode="µ" d="M60 465h90v-273q0 -63 28.5 -94t77.5 -31q32 0 57 12.5t42.5 33t26.5 47t9 55.5v250h89v-356v-58t1 -51h-85q-2 16 -2.5 29.5t-0.5 36.5q-9 -12 -22 -25.5t-31 -24.5t-41.5 -18.5t-51.5 -7.5q-30 0 -52 7t-45 26v-223h-90v665z"/>
<glyph glyph-name="paragraph" horiz-adv-x="536" unicode="¶" d="M203 257q14 -5 31.5 -6t32.5 -1h27v-372h-91v379zM365 667h92v-789h-92v789zM294 305q-50 0 -95.5 8.5t-79.5 29.5t-54 55.5t-20 87.5q0 52 20 87t54 56t79.5 29.5t95.5 8.5v-362z"/>
<glyph glyph-name="periodcentered" horiz-adv-x="253" unicode="·" d="M71 379h113v-112h-113v112z"/>
<glyph glyph-name="cedilla" horiz-adv-x="562" unicode="¸" d="M93 -144q17 -6 35 -10t37 -4q32 0 48.5 10.5t16.5 28.5q0 14 -13.5 24.5t-44.5 10.5q-18 0 -35 -3.5t-34 -9.5l9 55q16 5 34 9t50 4q53 0 80 -26t27 -61q0 -24 -10 -42t-27.5 -30.5t-40 -18.5t-47.5 -6q-43 0 -67 6.5t-29 8.5z"/>
<glyph glyph-name="onesuperior" horiz-adv-x="360" unicode="¹" d="M178 557l-88 -44l-28 57l126 67h67v-341h-77v261z"/>
<glyph glyph-name="ordmasculine" horiz-adv-x="409" unicode="º" d="M205 392q22 0 39 8t28 21.5t16.5 31t5.5 35.5t-5.5 35t-16.5 30.5t-28 22t-39 8.5q-23 0 -40 -8.5t-28 -22t-16.5 -30.5t-5.5 -35t5.5 -35.5t16.5 -31t28 -21.5t40 -8zM42 488q0 34 12 63.5t33.5 51t51.5 33.5t66 12t65.5 -12t51 -33.5t33.5 -51t12 -63.5t-12 -63.5 t-33.5 -51t-51 -33.5t-65.5 -12t-66 12t-51.5 33.5t-33.5 51t-12 63.5z"/>
<glyph glyph-name="guillemotright" horiz-adv-x="502" unicode="»" d="M348 238l-101 193h89l105 -193l-105 -193h-89zM171 238l-101 193h89l105 -193l-105 -193h-89z"/>
<glyph glyph-name="onequarter" horiz-adv-x="892" unicode="¼" d="M603 630h85l-405 -630h-85zM183 557l-88 -44l-28 57l126 67h67v-341h-77v261zM708 125v144l-120 -144h120zM522 124l179 218h76v-217h42v-58h-42v-65h-69v65h-186v57z"/>
<glyph glyph-name="onehalf" horiz-adv-x="892" unicode="½" d="M579 630h85l-405 -630h-85zM176 557l-88 -44l-28 57l126 67h67v-341h-77v261zM565 43q0 26 13 45.5t32.5 35.5t42 30t42 28t32.5 28.5t13 32.5q0 23 -16 33t-36 10q-26 0 -52 -12.5t-44 -28.5l-33 53q22 20 57.5 37t80.5 17q65 0 95.5 -31t30.5 -73q0 -41 -23.5 -66 t-53.5 -43.5t-58 -34.5t-37 -39h173v-64h-259v42z"/>
<glyph glyph-name="threequarters" horiz-adv-x="892" unicode="¾" d="M622 630h85l-405 -630h-85zM724 125v144l-120 -144h120zM538 124l179 218h76v-217h42v-58h-42v-65h-69v65h-186v57zM95 378q17 -14 39 -22t48 -8q31 0 50.5 13.5t19.5 39.5q0 16 -6 26t-16 16t-23 8.5t-27 2.5q-11 0 -23 -1.5t-21 -4.5l-15 31l107 96h-142v62h228v-57 l-88 -81q51 -5 76.5 -33t25.5 -70q0 -48 -39.5 -79t-105.5 -31q-38 0 -69 10t-55 27z"/>
<glyph glyph-name="questiondown" horiz-adv-x="506" unicode="¿" d="M483 -122q-9 -12 -26 -28.5t-43 -31.5t-61 -26t-80 -11q-49 0 -87 13.5t-64.5 36.5t-40 53.5t-13.5 64.5q0 29 7 51.5t20 42t32 36.5t43 35q20 15 36 27.5t27 27.5t17 33t6 44v27h90v-28q0 -54 -22 -97t-73 -80q-17 -12 -33 -24.5t-29 -26.5t-21 -31t-8 -37 q0 -38 31 -61.5t82 -23.5q28 0 51 7t42 17t33 22t24 23zM245 465h111v-110h-111v110z"/>
<glyph glyph-name="Agrave" horiz-adv-x="641" unicode="À" d="M425 267l-108 293l-109 -293h217zM271 667h98l261 -667h-107l-69 186h-274l-69 -186h-101zM196 870h112l74 -150h-81z"/>
<glyph glyph-name="Aacute" horiz-adv-x="641" unicode="Á" d="M425 267l-108 293l-109 -293h217zM271 667h98l261 -667h-107l-69 186h-274l-69 -186h-101zM343 870h114l-106 -150h-81z"/>
<glyph glyph-name="Acircumflex" horiz-adv-x="641" unicode="Â" d="M425 267l-108 293l-109 -293h217zM271 667h98l261 -667h-107l-69 186h-274l-69 -186h-101zM274 870h88q29 -38 56 -75t55 -75h-83q-19 23 -36.5 46t-36.5 46l-72 -92h-84z"/>
<glyph glyph-name="Atilde" horiz-adv-x="641" unicode="Ã" d="M425 267l-108 293l-109 -293h217zM271 667h98l261 -667h-107l-69 186h-274l-69 -186h-101zM131 798q19 20 49.5 38.5t68.5 18.5q23 0 39.5 -7t31 -15t29 -15t34.5 -7q29 0 48.5 11.5t36.5 25.5q10 -14 20.5 -28.5t20.5 -29.5q-19 -20 -49 -39t-68 -19q-23 0 -39 7t-31 16 t-30 16t-35 7q-29 0 -49 -11.5t-37 -25.5z"/>
<glyph glyph-name="Adieresis" horiz-adv-x="641" unicode="Ä" d="M425 267l-108 293l-109 -293h217zM271 667h98l261 -667h-107l-69 186h-274l-69 -186h-101zM172 844h101v-98h-101v98zM367 844h101v-98h-101v98z"/>
<glyph glyph-name="Aring" horiz-adv-x="641" unicode="Å" d="M322 689q25 0 40.5 17t15.5 43q0 25 -15.5 41t-41.5 16q-25 0 -40.5 -16.5t-15.5 -42.5q0 -25 15.5 -41.5t41.5 -16.5zM425 267l-108 293l-109 -293h217zM261 643q-28 14 -44.5 41.5t-16.5 62.5q0 26 9.5 48t25.5 37.5t38 24.5t48 9q25 0 47.5 -8.5t38.5 -24.5 t25.5 -37.5t9.5 -46.5q0 -37 -17.5 -65t-46.5 -42l252 -642h-107l-69 186h-274l-69 -186h-101z"/>
<glyph glyph-name="AE" horiz-adv-x="952" unicode="Æ" d="M464 259v332l-203 -332h203zM411 667h473v-86h-325v-194h246v-86h-246v-215h349v-86h-444v179h-251l-109 -179h-101z"/>
<glyph glyph-name="Ccedilla" horiz-adv-x="677" unicode="Ç" d="M642 117q-11 -18 -34 -41t-56 -43.5t-76 -34.5t-95 -14q-74 0 -135 26t-105 72.5t-68.5 110t-24.5 138.5q0 73 24.5 137t68.5 112t105.5 75.5t136.5 27.5q53 0 95 -13t73.5 -32.5t54 -42.5t36.5 -44l-68 -58q-12 17 -28.5 35.5t-39.5 33.5t-53 25t-69 10q-55 0 -98.5 -21 t-74 -57t-46.5 -84t-16 -102t16.5 -101.5t46.5 -82.5t73 -55t96 -20q45 0 77.5 11.5t55 27.5t37 32.5t24.5 27.5zM268 -152q17 -6 35.5 -10t38.5 -4q63 0 63 38q0 14 -13.5 22.5t-42.5 8.5q-37 0 -71 -12q3 14 5.5 28.5t4.5 28.5q18 5 37 9t49 4q54 0 82 -26t28 -61 q0 -24 -10.5 -42.5t-28.5 -30.5t-41 -18.5t-48 -6.5q-43 0 -68.5 6.5t-30.5 8.5q3 14 6 28.5t5 28.5z"/>
<glyph glyph-name="Egrave" horiz-adv-x="564" unicode="È" d="M76 667h420v-85h-324v-194h244v-86h-244v-216h348v-86h-444v667zM172 870h112l74 -150h-81z"/>
<glyph glyph-name="Eacute" horiz-adv-x="564" unicode="É" d="M76 667h420v-85h-324v-194h244v-86h-244v-216h348v-86h-444v667zM311 870h114l-106 -150h-81z"/>
<glyph glyph-name="Ecircumflex" horiz-adv-x="564" unicode="Ê" d="M76 667h420v-85h-324v-194h244v-86h-244v-216h348v-86h-444v667zM242 870h88q29 -38 56 -75t55 -75h-83q-19 23 -36.5 46t-36.5 46l-72 -92h-84z"/>
<glyph glyph-name="Edieresis" horiz-adv-x="564" unicode="Ë" d="M76 667h420v-85h-324v-194h244v-86h-244v-216h348v-86h-444v667zM137 844h101v-98h-101v98zM332 844h101v-98h-101v98z"/>
<glyph glyph-name="Igrave" horiz-adv-x="248" unicode="Ì" d="M76 667h96v-667h-96v667zM-10 870h112l74 -150h-81z"/>
<glyph glyph-name="Iacute" horiz-adv-x="248" unicode="Í" d="M76 667h96v-667h-96v667zM147 870h114l-106 -150h-81z"/>
<glyph glyph-name="Icircumflex" horiz-adv-x="248" unicode="Î" d="M76 667h96v-667h-96v667zM82 870h88q29 -38 56 -75t55 -75h-83q-19 23 -36.5 46t-36.5 46l-72 -92h-84z"/>
<glyph glyph-name="Idieresis" horiz-adv-x="248" unicode="Ï" d="M76 667h96v-667h-96v667zM-23 844h101v-98h-101v98zM172 844h101v-98h-101v98z"/>
<glyph glyph-name="Eth" horiz-adv-x="720" unicode="Ð" d="M303 86q125 0 194.5 61.5t69.5 183.5q0 121 -66.5 186t-200.5 65h-122v-202h168v-79h-168v-215h125zM82 301h-72v79h72v287h223q79 0 145.5 -19.5t114.5 -61t74.5 -104.5t26.5 -150q0 -84 -27 -146.5t-75 -104t-114.5 -61.5t-145.5 -20h-222v301z"/>
<glyph glyph-name="Ntilde" horiz-adv-x="707" unicode="Ñ" d="M76 667h97l364 -521v521h94v-667h-96l-365 522v-522h-94v667zM151 798q19 20 49.5 38.5t68.5 18.5q23 0 39.5 -7t31 -15t29 -15t34.5 -7q29 0 48.5 11.5t36.5 25.5q10 -14 20.5 -28.5t20.5 -29.5q-19 -20 -49 -39t-68 -19q-23 0 -39 7t-31 16t-30 16t-35 7 q-29 0 -49 -11.5t-37 -25.5z"/>
<glyph glyph-name="Ograve" horiz-adv-x="779" unicode="Ò" d="M389 73q55 0 99.5 21t76 57t48.5 83.5t17 100.5q0 54 -17 101.5t-48.5 83.5t-76 56.5t-99.5 20.5t-99 -20.5t-75.5 -56.5t-48.5 -83.5t-17 -101.5q0 -53 17 -100.5t48.5 -83.5t75.5 -57t99 -21zM389 -17q-72 0 -134 27.5t-108 75t-72 111.5t-26 137t26 136.5t71.5 111 t108 75t134.5 27.5t134.5 -27.5t108.5 -75t72 -111t26 -136.5t-26 -137t-72 -111.5t-108.5 -75t-134.5 -27.5zM267 870h112l74 -150h-81z"/>
<glyph glyph-name="Oacute" horiz-adv-x="779" unicode="Ó" d="M389 73q55 0 99.5 21t76 57t48.5 83.5t17 100.5q0 54 -17 101.5t-48.5 83.5t-76 56.5t-99.5 20.5t-99 -20.5t-75.5 -56.5t-48.5 -83.5t-17 -101.5q0 -53 17 -100.5t48.5 -83.5t75.5 -57t99 -21zM389 -17q-72 0 -134 27.5t-108 75t-72 111.5t-26 137t26 136.5t71.5 111 t108 75t134.5 27.5t134.5 -27.5t108.5 -75t72 -111t26 -136.5t-26 -137t-72 -111.5t-108.5 -75t-134.5 -27.5zM413 870h114l-106 -150h-81z"/>
<glyph glyph-name="Ocircumflex" horiz-adv-x="779" unicode="Ô" d="M389 73q55 0 99.5 21t76 57t48.5 83.5t17 100.5q0 54 -17 101.5t-48.5 83.5t-76 56.5t-99.5 20.5t-99 -20.5t-75.5 -56.5t-48.5 -83.5t-17 -101.5q0 -53 17 -100.5t48.5 -83.5t75.5 -57t99 -21zM389 -17q-72 0 -134 27.5t-108 75t-72 111.5t-26 137t26 136.5t71.5 111 t108 75t134.5 27.5t134.5 -27.5t108.5 -75t72 -111t26 -136.5t-26 -137t-72 -111.5t-108.5 -75t-134.5 -27.5zM344 870h88q29 -38 56 -75t55 -75h-83q-19 23 -36.5 46t-36.5 46l-72 -92h-84z"/>
<glyph glyph-name="Otilde" horiz-adv-x="779" unicode="Õ" d="M389 73q55 0 99.5 21t76 57t48.5 83.5t17 100.5q0 54 -17 101.5t-48.5 83.5t-76 56.5t-99.5 20.5t-99 -20.5t-75.5 -56.5t-48.5 -83.5t-17 -101.5q0 -53 17 -100.5t48.5 -83.5t75.5 -57t99 -21zM389 -17q-72 0 -134 27.5t-108 75t-72 111.5t-26 137t26 136.5t71.5 111 t108 75t134.5 27.5t134.5 -27.5t108.5 -75t72 -111t26 -136.5t-26 -137t-72 -111.5t-108.5 -75t-134.5 -27.5zM201 798q19 20 49.5 38.5t68.5 18.5q23 0 39.5 -7t31 -15t29 -15t34.5 -7q29 0 48.5 11.5t36.5 25.5q10 -14 20.5 -28.5t20.5 -29.5q-19 -20 -49 -39t-68 -19 q-23 0 -39 7t-31 16t-30 16t-35 7q-29 0 -49 -11.5t-37 -25.5z"/>
<glyph glyph-name="Odieresis" horiz-adv-x="779" unicode="Ö" d="M389 73q55 0 99.5 21t76 57t48.5 83.5t17 100.5q0 54 -17 101.5t-48.5 83.5t-76 56.5t-99.5 20.5t-99 -20.5t-75.5 -56.5t-48.5 -83.5t-17 -101.5q0 -53 17 -100.5t48.5 -83.5t75.5 -57t99 -21zM389 -17q-72 0 -134 27.5t-108 75t-72 111.5t-26 137t26 136.5t71.5 111 t108 75t134.5 27.5t134.5 -27.5t108.5 -75t72 -111t26 -136.5t-26 -137t-72 -111.5t-108.5 -75t-134.5 -27.5zM241 844h101v-98h-101v98zM436 844h101v-98h-101v98z"/>
<glyph glyph-name="multiply" d="M218 320l-120 121l54 55l121 -121l121 122l54 -55l-121 -121l120 -120l-55 -55l-119 121l-122 -122l-55 54z" unicode="×"/>
<glyph glyph-name="Oslash" horiz-adv-x="779" unicode="Ø" d="M498 570q-23 13 -50.5 20t-58.5 7q-55 0 -99 -21t-75.5 -56.5t-48.5 -83t-17 -101.5q0 -52 15.5 -97.5t44.5 -80.5zM271 104q25 -15 54.5 -23.5t63.5 -8.5q55 0 99.5 21t76 57t48.5 83.5t17 101.5t-18 102t-50 83zM154 77q-50 48 -77.5 114t-27.5 142q0 73 26 137 t71.5 111.5t108 75t134.5 27.5q45 0 85 -10.5t75 -30.5l59 83l68 -43l-60 -86q54 -48 84 -116.5t30 -147.5q0 -73 -26 -137t-72 -111t-108.5 -74.5t-134.5 -27.5q-48 0 -90.5 12t-80.5 33l-62 -87l-68 43z"/>
<glyph glyph-name="Ugrave" horiz-adv-x="673" unicode="Ù" d="M71 667h96v-390q0 -45 8 -82.5t27.5 -64.5t52 -41.5t82.5 -14.5q49 0 81.5 14.5t52 41.5t27.5 64.5t8 82.5v390h96v-413q0 -57 -16 -106.5t-48.5 -86t-82.5 -57.5t-118 -21t-118 21t-83 57.5t-49 86t-16 106.5v413zM221 870h112l74 -150h-81z"/>
<glyph glyph-name="Uacute" horiz-adv-x="673" unicode="Ú" d="M71 667h96v-390q0 -45 8 -82.5t27.5 -64.5t52 -41.5t82.5 -14.5q49 0 81.5 14.5t52 41.5t27.5 64.5t8 82.5v390h96v-413q0 -57 -16 -106.5t-48.5 -86t-82.5 -57.5t-118 -21t-118 21t-83 57.5t-49 86t-16 106.5v413zM354 870h114l-106 -150h-81z"/>
<glyph glyph-name="Ucircumflex" horiz-adv-x="673" unicode="Û" d="M71 667h96v-390q0 -45 8 -82.5t27.5 -64.5t52 -41.5t82.5 -14.5q49 0 81.5 14.5t52 41.5t27.5 64.5t8 82.5v390h96v-413q0 -57 -16 -106.5t-48.5 -86t-82.5 -57.5t-118 -21t-118 21t-83 57.5t-49 86t-16 106.5v413zM293 870h88q29 -38 56 -75t55 -75h-83q-19 23 -36.5 46 t-36.5 46l-72 -92h-84z"/>
<glyph glyph-name="Udieresis" horiz-adv-x="673" unicode="Ü" d="M71 667h96v-390q0 -45 8 -82.5t27.5 -64.5t52 -41.5t82.5 -14.5q49 0 81.5 14.5t52 41.5t27.5 64.5t8 82.5v390h96v-413q0 -57 -16 -106.5t-48.5 -86t-82.5 -57.5t-118 -21t-118 21t-83 57.5t-49 86t-16 106.5v413zM188 844h101v-98h-101v98zM383 844h101v-98h-101v98z "/>
<glyph glyph-name="Yacute" horiz-adv-x="577" unicode="Ý" d="M239 298l-230 369h107l174 -285l174 285h103l-231 -369v-298h-97v298zM318 870h114l-106 -150h-81z"/>
<glyph glyph-name="Thorn" horiz-adv-x="566" unicode="Þ" d="M290 222q62 0 95.5 32t33.5 87q0 57 -34.5 89.5t-94.5 32.5h-122v-241h122zM76 667h92v-122h118q68 0 113 -19t71.5 -48t37 -64.5t10.5 -69.5q0 -50 -17 -88.5t-47 -64t-72 -38.5t-91 -13h-123v-140h-92v667z"/>
<glyph glyph-name="germandbls" horiz-adv-x="586" unicode="ß" d="M62 475q0 59 16 99t44 64t67 34.5t85 10.5q37 0 69 -10.5t55.5 -29t37 -44.5t13.5 -57q0 -40 -18.5 -68.5t-40.5 -51t-40.5 -43t-18.5 -44.5t22 -37t57 -22q28 -8 52.5 -18.5t43 -27t29 -41t10.5 -60.5q0 -64 -45 -103t-130 -39q-50 0 -89.5 13.5t-69.5 37.5l53 65 q23 -20 50 -30t53 -10q46 0 67.5 17.5t21.5 43.5q0 30 -17.5 47.5t-66.5 33.5q-24 7 -47 15.5t-41 22.5t-29.5 35.5t-11.5 55.5q0 35 18 61t39 48t39 42.5t18 43.5q0 31 -21.5 53.5t-69.5 22.5q-32 0 -54 -10t-35.5 -27.5t-19.5 -42.5t-6 -55v-470h-89v475z"/>
<glyph glyph-name="agrave" horiz-adv-x="499" unicode="à" d="M353 56q-26 -35 -68.5 -52t-87.5 -17q-29 0 -57.5 7.5t-52 25t-38 45t-14.5 67.5q0 75 52.5 120t151.5 45q16 0 34 -1t34 -2t28 -2t17 -2v17q0 52 -31.5 74.5t-85.5 22.5q-53 0 -84 -14.5t-52 -29.5l-42 61q12 10 29 20t40 18.5t52 14t67 5.5q90 0 141.5 -43.5 t51.5 -123.5v-220v-50.5t1 -41.5h-84zM352 220q-4 1 -15.5 2.5t-26.5 2.5t-32 2t-33 1q-38 0 -61.5 -9t-37 -22.5t-18.5 -30t-5 -31.5q0 -38 26 -57.5t72 -19.5q26 0 49.5 9t41.5 24t29 35t11 41v53zM147 677h100l53 -136h-75z"/>
<glyph glyph-name="aacute" horiz-adv-x="499" unicode="á" d="M353 56q-26 -35 -68.5 -52t-87.5 -17q-29 0 -57.5 7.5t-52 25t-38 45t-14.5 67.5q0 75 52.5 120t151.5 45q16 0 34 -1t34 -2t28 -2t17 -2v17q0 52 -31.5 74.5t-85.5 22.5q-53 0 -84 -14.5t-52 -29.5l-42 61q12 10 29 20t40 18.5t52 14t67 5.5q90 0 141.5 -43.5 t51.5 -123.5v-220v-50.5t1 -41.5h-84zM352 220q-4 1 -15.5 2.5t-26.5 2.5t-32 2t-33 1q-38 0 -61.5 -9t-37 -22.5t-18.5 -30t-5 -31.5q0 -38 26 -57.5t72 -19.5q26 0 49.5 9t41.5 24t29 35t11 41v53zM256 676h98l-77 -136h-75z"/>
<glyph glyph-name="acircumflex" horiz-adv-x="499" unicode="â" d="M353 56q-26 -35 -68.5 -52t-87.5 -17q-29 0 -57.5 7.5t-52 25t-38 45t-14.5 67.5q0 75 52.5 120t151.5 45q16 0 34 -1t34 -2t28 -2t17 -2v17q0 52 -31.5 74.5t-85.5 22.5q-53 0 -84 -14.5t-52 -29.5l-42 61q12 10 29 20t40 18.5t52 14t67 5.5q90 0 141.5 -43.5 t51.5 -123.5v-220v-50.5t1 -41.5h-84zM352 220q-4 1 -15.5 2.5t-26.5 2.5t-32 2t-33 1q-38 0 -61.5 -9t-37 -22.5t-18.5 -30t-5 -31.5q0 -38 26 -57.5t72 -19.5q26 0 49.5 9t41.5 24t29 35t11 41v53zM200 676h85l99 -137h-82l-60 83l-59 -83h-82z"/>
<glyph glyph-name="atilde" horiz-adv-x="499" unicode="ã" d="M353 56q-26 -35 -68.5 -52t-87.5 -17q-29 0 -57.5 7.5t-52 25t-38 45t-14.5 67.5q0 75 52.5 120t151.5 45q16 0 34 -1t34 -2t28 -2t17 -2v17q0 52 -31.5 74.5t-85.5 22.5q-53 0 -84 -14.5t-52 -29.5l-42 61q12 10 29 20t40 18.5t52 14t67 5.5q90 0 141.5 -43.5 t51.5 -123.5v-220v-50.5t1 -41.5h-84zM352 220q-4 1 -15.5 2.5t-26.5 2.5t-32 2t-33 1q-38 0 -61.5 -9t-37 -22.5t-18.5 -30t-5 -31.5q0 -38 26 -57.5t72 -19.5q26 0 49.5 9t41.5 24t29 35t11 41v53zM65 606q17 19 47 36.5t65 17.5q21 0 36.5 -6.5t29.5 -15t29 -15t36 -6.5 q29 2 45 12t33 24l36 -54q-17 -19 -46.5 -37t-64.5 -18q-21 0 -37 7t-30 15t-28 15t-33 7q-28 0 -46.5 -10.5t-34.5 -24.5z"/>
<glyph glyph-name="adieresis" horiz-adv-x="499" unicode="ä" d="M353 56q-26 -35 -68.5 -52t-87.5 -17q-29 0 -57.5 7.5t-52 25t-38 45t-14.5 67.5q0 75 52.5 120t151.5 45q16 0 34 -1t34 -2t28 -2t17 -2v17q0 52 -31.5 74.5t-85.5 22.5q-53 0 -84 -14.5t-52 -29.5l-42 61q12 10 29 20t40 18.5t52 14t67 5.5q90 0 141.5 -43.5 t51.5 -123.5v-220v-50.5t1 -41.5h-84zM352 220q-4 1 -15.5 2.5t-26.5 2.5t-32 2t-33 1q-38 0 -61.5 -9t-37 -22.5t-18.5 -30t-5 -31.5q0 -38 26 -57.5t72 -19.5q26 0 49.5 9t41.5 24t29 35t11 41v53zM120 651h94v-91h-94v91zM291 651h93v-91h-93v91z"/>
<glyph glyph-name="aring" horiz-adv-x="499" unicode="å" d="M353 56q-26 -35 -68.5 -52t-87.5 -17q-29 0 -57.5 7.5t-52 25t-38 45t-14.5 67.5q0 75 52.5 120t151.5 45q16 0 34 -1t34 -2t28 -2t17 -2v17q0 52 -31.5 74.5t-85.5 22.5q-53 0 -84 -14.5t-52 -29.5l-42 61q12 10 29 20t40 18.5t52 14t67 5.5q90 0 141.5 -43.5 t51.5 -123.5v-220v-50.5t1 -41.5h-84zM352 220q-4 1 -15.5 2.5t-26.5 2.5t-32 2t-33 1q-38 0 -61.5 -9t-37 -22.5t-18.5 -30t-5 -31.5q0 -38 26 -57.5t72 -19.5q26 0 49.5 9t41.5 24t29 35t11 41v53zM250 589q21 0 36 15t15 37t-15 36.5t-36 14.5t-35.5 -14.5t-14.5 -36.5 t14.5 -37t35.5 -15zM140 641q0 23 8.5 42.5t23.5 34t35 22.5t43 8t43 -8t35 -22t23.5 -33.5t8.5 -42.5t-8.5 -43t-23.5 -34t-35 -22t-42 -8q-23 0 -43 8t-35 22t-24 33.5t-9 42.5z"/>
<glyph glyph-name="ae" horiz-adv-x="843" unicode="æ" d="M712 274q-4 54 -38 91.5t-96 37.5q-32 0 -57.5 -11t-43.5 -29t-28 -41t-11 -48h274zM352 210q-9 1 -22 2.5t-28 2.5t-30 1.5t-27 0.5q-35 0 -59 -7.5t-38.5 -19t-20.5 -26.5t-6 -30q0 -38 27 -57t73 -19q28 0 52 9t41.5 24t27.5 35t10 41v43zM57 421q12 9 28.5 19.5 t39 19t51 14t64.5 5.5q125 0 170 -79q28 37 71.5 58t96.5 21q60 0 103 -22.5t70.5 -60t40.5 -87t13 -102.5h-366q0 -31 12.5 -57t33.5 -45.5t48 -30.5t57 -11q59 0 97 20t55 39l51 -54q-8 -9 -24 -23t-41.5 -27t-60 -22.5t-78.5 -9.5q-63 0 -112 24.5t-81 69.5 q-40 -53 -84.5 -73t-107.5 -20q-31 0 -61 7.5t-54 24.5t-39 44.5t-15 67.5q0 75 53 115t151 40q15 0 32 -1t33 -2t28.5 -2t19.5 -1v27q0 52 -30.5 74.5t-82.5 22.5q-55 0 -87 -14.5t-53 -29.5z"/>
<glyph glyph-name="ccedilla" horiz-adv-x="493" unicode="ç" d="M466 64q-31 -35 -76.5 -56.5t-105.5 -21.5q-56 0 -101.5 18.5t-77 51t-48.5 78t-17 99.5q0 51 18 96t50.5 78.5t77 53t98.5 19.5q59 0 104 -21t77 -57l-59 -57q-21 26 -51 41t-71 15q-36 0 -64.5 -13.5t-48 -37t-30 -54t-10.5 -63.5q0 -32 10.5 -62.5t30 -54t48 -37.5 t64.5 -14q41 0 73.5 15.5t53.5 41.5zM170 -155q17 -6 35 -10t37 -4q32 0 48.5 10.5t16.5 28.5q0 14 -13.5 24.5t-44.5 10.5q-18 0 -35 -3.5t-34 -9.5l9 55q16 5 34 9t50 4q53 0 80 -26t27 -61q0 -24 -10 -42t-27.5 -30.5t-40 -18.5t-47.5 -6q-43 0 -67 6.5t-29 8.5z"/>
<glyph glyph-name="egrave" horiz-adv-x="536" unicode="è" d="M405 273q-4 54 -38 92t-96 38q-32 0 -57.5 -11t-43.5 -29t-28 -41.5t-11 -48.5h274zM486 68q-8 -9 -24 -23t-41.5 -27t-60 -22.5t-78.5 -9.5q-54 0 -99 18t-77 51t-49.5 79t-17.5 102q0 51 17 95.5t48 77t73.5 51.5t93.5 19q60 0 103 -23t70.5 -61t40.5 -87t13 -102h-367 q1 -31 13.5 -57t33.5 -45t48 -30t57 -11q59 0 97 20t55 39zM172 677h100l53 -136h-75z"/>
<glyph glyph-name="eacute" horiz-adv-x="536" unicode="é" d="M405 273q-4 54 -38 92t-96 38q-32 0 -57.5 -11t-43.5 -29t-28 -41.5t-11 -48.5h274zM486 68q-8 -9 -24 -23t-41.5 -27t-60 -22.5t-78.5 -9.5q-54 0 -99 18t-77 51t-49.5 79t-17.5 102q0 51 17 95.5t48 77t73.5 51.5t93.5 19q60 0 103 -23t70.5 -61t40.5 -87t13 -102h-367 q1 -31 13.5 -57t33.5 -45t48 -30t57 -11q59 0 97 20t55 39zM285 676h98l-77 -136h-75z"/>
<glyph glyph-name="ecircumflex" horiz-adv-x="536" unicode="ê" d="M405 273q-4 54 -38 92t-96 38q-32 0 -57.5 -11t-43.5 -29t-28 -41.5t-11 -48.5h274zM486 68q-8 -9 -24 -23t-41.5 -27t-60 -22.5t-78.5 -9.5q-54 0 -99 18t-77 51t-49.5 79t-17.5 102q0 51 17 95.5t48 77t73.5 51.5t93.5 19q60 0 103 -23t70.5 -61t40.5 -87t13 -102h-367 q1 -31 13.5 -57t33.5 -45t48 -30t57 -11q59 0 97 20t55 39zM226 676h85l99 -137h-82l-60 83l-59 -83h-82z"/>
<glyph glyph-name="edieresis" horiz-adv-x="536" unicode="ë" d="M405 273q-4 54 -38 92t-96 38q-32 0 -57.5 -11t-43.5 -29t-28 -41.5t-11 -48.5h274zM486 68q-8 -9 -24 -23t-41.5 -27t-60 -22.5t-78.5 -9.5q-54 0 -99 18t-77 51t-49.5 79t-17.5 102q0 51 17 95.5t48 77t73.5 51.5t93.5 19q60 0 103 -23t70.5 -61t40.5 -87t13 -102h-367 q1 -31 13.5 -57t33.5 -45t48 -30t57 -11q59 0 97 20t55 39zM136 651h94v-91h-94v91zM307 651h93v-91h-93v91z"/>
<glyph glyph-name="igrave" horiz-adv-x="222" unicode="ì" d="M-1 677h100l53 -136h-75zM66 465h90v-465h-90v465z"/>
<glyph glyph-name="iacute" horiz-adv-x="222" unicode="í" d="M125 676h98l-77 -136h-75zM66 465h90v-465h-90v465z"/>
<glyph glyph-name="icircumflex" horiz-adv-x="222" unicode="î" d="M66 465h90v-465h-90v465zM69 676h85l99 -137h-82l-60 83l-59 -83h-82z"/>
<glyph glyph-name="idieresis" horiz-adv-x="222" unicode="ï" d="M-20 651h94v-91h-94v91zM151 651h93v-91h-93v91zM66 465h90v-465h-90v465z"/>
<glyph glyph-name="eth" horiz-adv-x="558" unicode="ð" d="M421 333q-18 12 -50 26.5t-81 14.5q-34 0 -63 -11t-50 -31.5t-33 -49.5t-12 -64t11 -63t30 -48.5t45.5 -31.5t56.5 -11q28 0 55.5 11.5t49.5 36t35 63.5t13 93q0 16 -1 31.5t-6 33.5zM220 592q-21 7 -44 10.5t-46 5.5l10 70q68 -4 125 -23l48 67l51 -32l-42 -58 q100 -50 148 -144.5t48 -217.5q0 -74 -19.5 -127.5t-53.5 -89t-78.5 -52.5t-95.5 -17q-45 0 -87 15t-74 44.5t-51 73.5t-19 102q0 47 17.5 89t48.5 74t74.5 51t95.5 19q48 0 79 -10t50 -20q-17 49 -49.5 86t-77.5 61l-53 -73l-51 32z"/>
<glyph glyph-name="ntilde" horiz-adv-x="544" unicode="ñ" d="M62 364v53.5t-1 47.5h86l3 -70q9 12 22 26.5t32 26.5t44.5 20t57.5 8q91 0 135 -53t44 -144v-279h-90v272q0 65 -28 95.5t-79 30.5q-39 0 -65 -16t-41.5 -41.5t-22.5 -58t-7 -66.5v-216h-90v364zM94 606q17 19 47 36.5t65 17.5q21 0 36.5 -6.5t29.5 -15t29 -15t36 -6.5 q29 2 45 12t33 24l36 -54q-17 -19 -46.5 -37t-64.5 -18q-21 0 -37 7t-30 15t-28 15t-33 7q-28 0 -46.5 -10.5t-34.5 -24.5z"/>
<glyph glyph-name="ograve" horiz-adv-x="572" unicode="ò" d="M286 64q36 0 65 14.5t49 38t30.5 54t10.5 62.5q0 31 -10.5 61.5t-31 54.5t-49 38.5t-64.5 14.5t-65 -14.5t-49 -38t-30.5 -54t-10.5 -62.5t10.5 -62t31 -54t49 -38.5t64.5 -14.5zM286 -14q-54 0 -99 19.5t-77.5 53.5t-51 78.5t-18.5 95.5t18.5 95.5t51 78.5t77.5 53.5 t99 19.5q53 0 98 -19.5t78 -53.5t51.5 -78.5t18.5 -95.5t-18.5 -95.5t-51.5 -78.5t-78 -53.5t-98 -19.5zM185 677h100l53 -136h-75z"/>
<glyph glyph-name="oacute" horiz-adv-x="572" unicode="ó" d="M286 64q36 0 65 14.5t49 38t30.5 54t10.5 62.5q0 31 -10.5 61.5t-31 54.5t-49 38.5t-64.5 14.5t-65 -14.5t-49 -38t-30.5 -54t-10.5 -62.5t10.5 -62t31 -54t49 -38.5t64.5 -14.5zM286 -14q-54 0 -99 19.5t-77.5 53.5t-51 78.5t-18.5 95.5t18.5 95.5t51 78.5t77.5 53.5 t99 19.5q53 0 98 -19.5t78 -53.5t51.5 -78.5t18.5 -95.5t-18.5 -95.5t-51.5 -78.5t-78 -53.5t-98 -19.5zM297 676h98l-77 -136h-75z"/>
<glyph glyph-name="ocircumflex" horiz-adv-x="572" unicode="ô" d="M286 64q36 0 65 14.5t49 38t30.5 54t10.5 62.5q0 31 -10.5 61.5t-31 54.5t-49 38.5t-64.5 14.5t-65 -14.5t-49 -38t-30.5 -54t-10.5 -62.5t10.5 -62t31 -54t49 -38.5t64.5 -14.5zM286 -14q-54 0 -99 19.5t-77.5 53.5t-51 78.5t-18.5 95.5t18.5 95.5t51 78.5t77.5 53.5 t99 19.5q53 0 98 -19.5t78 -53.5t51.5 -78.5t18.5 -95.5t-18.5 -95.5t-51.5 -78.5t-78 -53.5t-98 -19.5zM242 676h85l99 -137h-82l-60 83l-59 -83h-82z"/>
<glyph glyph-name="otilde" horiz-adv-x="572" unicode="õ" d="M286 64q36 0 65 14.5t49 38t30.5 54t10.5 62.5q0 31 -10.5 61.5t-31 54.5t-49 38.5t-64.5 14.5t-65 -14.5t-49 -38t-30.5 -54t-10.5 -62.5t10.5 -62t31 -54t49 -38.5t64.5 -14.5zM286 -14q-54 0 -99 19.5t-77.5 53.5t-51 78.5t-18.5 95.5t18.5 95.5t51 78.5t77.5 53.5 t99 19.5q53 0 98 -19.5t78 -53.5t51.5 -78.5t18.5 -95.5t-18.5 -95.5t-51.5 -78.5t-78 -53.5t-98 -19.5zM108 606q17 19 47 36.5t65 17.5q21 0 36.5 -6.5t29.5 -15t29 -15t36 -6.5q29 2 45 12t33 24l36 -54q-17 -19 -46.5 -37t-64.5 -18q-21 0 -37 7t-30 15t-28 15t-33 7 q-28 0 -46.5 -10.5t-34.5 -24.5z"/>
<glyph glyph-name="odieresis" horiz-adv-x="572" unicode="ö" d="M286 64q36 0 65 14.5t49 38t30.5 54t10.5 62.5q0 31 -10.5 61.5t-31 54.5t-49 38.5t-64.5 14.5t-65 -14.5t-49 -38t-30.5 -54t-10.5 -62.5t10.5 -62t31 -54t49 -38.5t64.5 -14.5zM286 -14q-54 0 -99 19.5t-77.5 53.5t-51 78.5t-18.5 95.5t18.5 95.5t51 78.5t77.5 53.5 t99 19.5q53 0 98 -19.5t78 -53.5t51.5 -78.5t18.5 -95.5t-18.5 -95.5t-51.5 -78.5t-78 -53.5t-98 -19.5zM154 651h94v-91h-94v91zM325 651h93v-91h-93v91z"/>
<glyph glyph-name="divide" horiz-adv-x="544" unicode="÷" d="M227 518h89v-84h-89v84zM227 209h89v-85h-89v85zM72 360h399v-78h-399v78z"/>
<glyph glyph-name="oslash" horiz-adv-x="572" unicode="ø" d="M351 385q-30 16 -65 16q-36 0 -65 -14.5t-49.5 -38t-31 -54t-10.5 -61.5q0 -30 10 -59t29 -52zM220 79q30 -16 66 -16t65 14.5t49 38.5t30.5 54.5t10.5 62.5q0 29 -10 57t-28 51zM118 49q-38 35 -58.5 82t-20.5 102q0 51 18.5 95.5t51.5 78t78 53t99 19.5q31 0 59 -7 t53 -20l49 69l57 -35l-50 -72q36 -35 57 -81t21 -100q0 -51 -18.5 -96t-51.5 -78.5t-78 -53t-98 -19.5q-32 0 -60 7t-53 18l-46 -64l-56 35z"/>
<glyph glyph-name="ugrave" horiz-adv-x="542" unicode="ù" d="M59 465h90v-273q0 -66 27 -95.5t78 -29.5q39 0 64.5 16t41.5 41.5t22.5 58t6.5 66.5v216h90v-364v-53.5t1 -47.5h-86l-3 69q-9 -12 -22 -26t-32 -25.5t-44 -19.5t-57 -8q-91 0 -134 52.5t-43 143.5v279zM167 677h100l53 -136h-75z"/>
<glyph glyph-name="uacute" horiz-adv-x="542" unicode="ú" d="M59 465h90v-273q0 -66 27 -95.5t78 -29.5q39 0 64.5 16t41.5 41.5t22.5 58t6.5 66.5v216h90v-364v-53.5t1 -47.5h-86l-3 69q-9 -12 -22 -26t-32 -25.5t-44 -19.5t-57 -8q-91 0 -134 52.5t-43 143.5v279zM279 676h98l-77 -136h-75z"/>
<glyph glyph-name="ucircumflex" horiz-adv-x="542" unicode="û" d="M59 465h90v-273q0 -66 27 -95.5t78 -29.5q39 0 64.5 16t41.5 41.5t22.5 58t6.5 66.5v216h90v-364v-53.5t1 -47.5h-86l-3 69q-9 -12 -22 -26t-32 -25.5t-44 -19.5t-57 -8q-91 0 -134 52.5t-43 143.5v279zM227 676h85l99 -137h-82l-60 83l-59 -83h-82z"/>
<glyph glyph-name="udieresis" horiz-adv-x="542" unicode="ü" d="M59 465h90v-273q0 -66 27 -95.5t78 -29.5q39 0 64.5 16t41.5 41.5t22.5 58t6.5 66.5v216h90v-364v-53.5t1 -47.5h-86l-3 69q-9 -12 -22 -26t-32 -25.5t-44 -19.5t-57 -8q-91 0 -134 52.5t-43 143.5v279zM139 651h94v-91h-94v91zM310 651h93v-91h-93v91z"/>
<glyph glyph-name="yacute" horiz-adv-x="502" unicode="ý" d="M64 -114q10 -9 23 -16t32 -7q16 0 27.5 7t21 21.5t18 35t19.5 47.5l12 30l-208 461h103l150 -351l132 351h98l-186 -453q-13 -32 -26.5 -70.5t-33.5 -73t-49 -57.5t-73 -23q-35 0 -59 9.5t-42 25.5zM265 676h98l-77 -136h-75z"/>
<glyph glyph-name="thorn" horiz-adv-x="558" unicode="þ" d="M151 101q16 -13 46 -25t75 -12q34 0 62.5 12.5t49 35t31.5 53t11 67.5q0 34 -7.5 64t-24 52.5t-42.5 35.5t-64 13q-26 0 -46.5 -8.5t-36.5 -22t-27.5 -31t-18.5 -36.5q-7 -18 -7.5 -38.5t-0.5 -40.5v-119zM63 -200q0 218 -0.5 433.5t-0.5 433.5h89v-264q7 9 20.5 21.5 t33 24t45 19t58.5 7.5q54 0 93.5 -19.5t65.5 -53t38.5 -77.5t12.5 -93q0 -64 -21.5 -110.5t-56 -76.5t-76.5 -44.5t-84 -14.5q-47 0 -75.5 9.5t-53.5 20.5v-216h-88z"/>
<glyph glyph-name="dotlessi" horiz-adv-x="222" unicode="ı" d="M66 465h90v-465h-90v465z"/>
<glyph glyph-name="OE" horiz-adv-x="1118" unicode="Œ" d="M389 73q55 0 99 21t75.5 57t48.5 83.5t17 100.5q0 54 -17 101.5t-48.5 83.5t-75.5 56.5t-99 20.5t-99.5 -20.5t-76 -56.5t-48.5 -83.5t-17 -101.5q0 -53 17 -100.5t48.5 -83.5t76 -57t99.5 -21zM631 113q-16 -30 -41.5 -54t-57.5 -41t-69.5 -26t-76.5 -9 q-71 0 -132.5 27.5t-107 75t-71.5 111.5t-26 137t26 136.5t71.5 111t107 75t132.5 27.5q40 0 77 -9t69 -26t57.5 -41t41.5 -54v113h419v-85h-326v-194h247v-86h-247v-216h351v-86h-444v113z"/>
<glyph glyph-name="oe" horiz-adv-x="937" unicode="œ" d="M806 273q-4 54 -38 92t-96 38q-32 0 -58 -11t-44 -29t-27.5 -41.5t-10.5 -48.5h274zM286 63q36 0 65 14.5t49 38.5t30.5 54.5t10.5 62.5q0 31 -11 61t-31 54t-48.5 38.5t-64.5 14.5t-65 -14.5t-49.5 -38t-31 -54t-10.5 -61.5q0 -32 11 -62.5t31 -54.5t49 -38.5t65 -14.5z M887 68q-8 -9 -24 -23t-41.5 -27t-60 -22.5t-78.5 -9.5q-67 0 -118 28.5t-82 79.5q-30 -49 -82 -78.5t-115 -29.5q-54 0 -99 19.5t-78 53t-51.5 78.5t-18.5 96t18.5 95.5t51.5 78t78 53t99 19.5q63 0 114 -29.5t82 -77.5q29 50 78 78.5t112 28.5q60 0 103 -23t70.5 -61 t40.5 -87.5t13 -101.5h-367q1 -31 13.5 -57t33 -45t48 -30t57.5 -11q29 0 53 5.5t43.5 14.5t33.5 19.5t22 19.5z"/>
<glyph glyph-name="Scaron" horiz-adv-x="582" unicode="Š" d="M105 162q14 -16 31.5 -32.5t39.5 -29.5t49 -21t59 -8q66 0 103 30t37 81q0 55 -42 82.5t-121 44.5q-43 9 -78 25t-60.5 40t-39.5 55.5t-14 71.5q0 37 14 70t42 58t70 40t97 15q49 0 84.5 -10.5t60.5 -25.5t40 -31t23 -26l-64 -59q-6 7 -18 18.5t-30.5 22.5t-43 18.5 t-56.5 7.5t-55 -8.5t-38 -22t-22 -30.5t-7 -34q0 -25 10.5 -42.5t30.5 -31t49.5 -23t67.5 -18.5q37 -9 72.5 -23.5t63.5 -39t44.5 -60t16.5 -86.5q0 -43 -18 -79t-49.5 -62.5t-74.5 -41t-93 -14.5q-47 0 -85.5 11t-70 28t-55 37.5t-38.5 40.5zM220 870q19 -23 36.5 -46 t36.5 -46l72 92h84l-113 -150h-88q-29 38 -56 75t-55 75h83z"/>
<glyph glyph-name="scaron" horiz-adv-x="472" unicode="š" d="M92 117q25 -25 60 -40t81 -15q45 0 75 14.5t30 45.5q0 16 -6.5 27.5t-22 20.5t-41 16.5t-63.5 16.5q-27 6 -53.5 16t-47.5 26.5t-34 40t-13 56.5q0 34 15.5 59.5t41.5 43t58.5 26.5t67.5 9q59 0 101.5 -15.5t74.5 -43.5l-49 -62q-21 19 -52.5 32t-73.5 13q-43 0 -69 -14 t-26 -46q0 -30 34.5 -44.5t90.5 -27.5q33 -8 61.5 -18.5t50 -27t34 -40.5t12.5 -58q0 -35 -16 -61.5t-43 -44.5t-62 -27t-73 -9q-132 0 -198 71zM103 676h82l60 -83l59 83h82l-99 -137h-85z"/>
<glyph glyph-name="Ydieresis" horiz-adv-x="577" unicode="Ÿ" d="M239 298l-230 369h107l174 -285l174 285h103l-231 -369v-298h-97v298zM143 844h101v-98h-101v98zM338 844h101v-98h-101v98z"/>
<glyph glyph-name="circumflex" horiz-adv-x="410" unicode="ˆ" d="M162 676h85l99 -137h-82l-60 83l-59 -83h-82z"/>
<glyph glyph-name="caron" horiz-adv-x="410" unicode="ˇ" d="M63 676h82l60 -83l59 83h82l-99 -137h-85z"/>
<glyph glyph-name="ring" horiz-adv-x="329" unicode="˚" d="M164 589q21 0 36 15t15 37t-15 36.5t-36 14.5t-35.5 -14.5t-14.5 -36.5t14.5 -37t35.5 -15zM54 641q0 23 8.5 42.5t23.5 34t35 22.5t43 8t43 -8t35 -22t23.5 -33.5t8.5 -42.5t-8.5 -43t-23.5 -34t-35 -22t-42 -8q-23 0 -43 8t-35 22t-24 33.5t-9 42.5z"/>
<glyph glyph-name="tilde" horiz-adv-x="418" unicode="˜" d="M29 606q17 19 47 36.5t65 17.5q21 0 36.5 -6.5t29.5 -15t29 -15t36 -6.5q29 2 45 12t33 24l36 -54q-17 -19 -46.5 -37t-64.5 -18q-21 0 -37 7t-30 15t-28 15t-33 7q-28 0 -46.5 -10.5t-34.5 -24.5z"/>
<glyph glyph-name="uni0394" horiz-adv-x="687" unicode="Δ" d="M556 86l-216 478l-211 -478h427zM34 86l262 581h95l262 -581v-86h-619v86z"/>
<glyph glyph-name="uni03BC" horiz-adv-x="542" unicode="μ" d="M60 465h90v-273q0 -63 28.5 -94t77.5 -31q32 0 57 12.5t42.5 33t26.5 47t9 55.5v250h89v-356v-58t1 -51h-85q-2 16 -2.5 29.5t-0.5 36.5q-9 -12 -22 -25.5t-31 -24.5t-41.5 -18.5t-51.5 -7.5q-30 0 -52 7t-45 26v-223h-90v665z"/>
<glyph glyph-name="pi" horiz-adv-x="692" unicode="π" d="M161 390h-105v75h574v-75h-104v-243q0 -42 11 -58t37 -16q14 0 26 3t21 8l20 -71q-17 -8 -41.5 -13t-47.5 -5q-53 0 -85 32.5t-32 106.5v256h-183v-390h-91v390z"/>
<glyph glyph-name="endash" horiz-adv-x="500" unicode="–" d="M0 323h500v-86h-500v86z"/>
<glyph glyph-name="emdash" horiz-adv-x="1000" unicode="—" d="M0 323h1000v-86h-1000v86z"/>
<glyph glyph-name="quoteleft" horiz-adv-x="239" unicode="‘" d="M107 666h70l-21 -198h-102z"/>
<glyph glyph-name="quoteright" horiz-adv-x="239" unicode="’" d="M87 666h102l-53 -198h-69z"/>
<glyph glyph-name="quotesinglbase" horiz-adv-x="248" unicode="‚" d="M90 112h101l-52 -197h-70z"/>
<glyph glyph-name="quotedblleft" horiz-adv-x="409" unicode="“" d="M279 666h70l-21 -198h-102zM109 666h70l-21 -198h-102z"/>
<glyph glyph-name="quotedblright" horiz-adv-x="409" unicode="”" d="M259 666h102l-53 -198h-69zM89 666h102l-53 -198h-69z"/>
<glyph glyph-name="dagger" horiz-adv-x="516" unicode="†" d="M214 399h-153v75h153v193h88v-193h153v-75h-153v-520h-88v520z"/>
<glyph glyph-name="daggerdbl" horiz-adv-x="516" unicode="‡" d="M214 72h-153v75h153v252h-153v75h153v193h88v-193h153v-75h-153v-252h153v-75h-153v-193h-88v193z"/>
<glyph glyph-name="ellipsis" horiz-adv-x="749" unicode="…" d="M503 111h113v-112h-113v112zM270 111h113v-112h-113v112zM38 111h113v-112h-113v112z"/>
<glyph glyph-name="perthousand" horiz-adv-x="1269" unicode="‰" d="M603 630h85l-405 -630h-85zM689 55q14 0 27.5 6t24.5 20t18 36.5t7 55.5t-7 55.5t-18 36t-24.5 19.5t-27.5 6t-28 -6t-25 -19.5t-18 -36t-7 -55.5t7 -55.5t18 -36.5t25 -20t28 -6zM689 -8q-68 0 -111.5 46t-43.5 135t43.5 134.5t111.5 45.5q34 0 62.5 -11.5t49 -34 t32 -56t11.5 -78.5q0 -89 -43.5 -135t-111.5 -46zM1067 55q14 0 27.5 6t24.5 20t18 36.5t7 55.5t-7 55.5t-18 36t-24.5 19.5t-27.5 6t-28 -6t-25 -19.5t-18 -36t-7 -55.5t7 -55.5t18 -36.5t25 -20t28 -6zM1067 -8q-68 0 -111.5 46t-43.5 135t43.5 134.5t111.5 45.5 q34 0 62.5 -11.5t49 -34t32 -56t11.5 -78.5q0 -89 -43.5 -135t-111.5 -46zM202 349q14 0 27.5 6t24.5 20t18 36.5t7 55.5t-7 55.5t-18 36t-24.5 19.5t-27.5 6t-28 -6t-25 -19.5t-18 -36t-7 -55.5t7 -55.5t18 -36.5t25 -20t28 -6zM202 286q-68 0 -111.5 46t-43.5 135 t43.5 134.5t111.5 45.5q34 0 62.5 -11.5t49 -34t32 -56t11.5 -78.5q0 -89 -43.5 -135t-111.5 -46z"/>
<glyph glyph-name="guilsinglleft" horiz-adv-x="325" unicode="‹" d="M63 238l105 193h89l-101 -193l101 -193h-89z"/>
<glyph glyph-name="guilsinglright" horiz-adv-x="325" unicode="›" d="M169 238l-101 193h89l105 -193l-105 -193h-89z"/>
<glyph glyph-name="fraction" horiz-adv-x="195" unicode="⁄" d="M259 630h85l-405 -630h-85z"/>
<glyph glyph-name="zerosuperior" horiz-adv-x="360" unicode="⁰" d="M178 349q14 0 27.5 6t24.5 20t18 36.5t7 55.5t-7 55.5t-18 36t-24.5 19.5t-27.5 6t-28 -6t-25 -19.5t-18 -36t-7 -55.5t7 -55.5t18 -36.5t25 -20t28 -6zM178 286q-68 0 -111.5 46t-43.5 135t43.5 134.5t111.5 45.5q34 0 62.5 -11.5t49 -34t32 -56t11.5 -78.5 q0 -89 -43.5 -135t-111.5 -46z"/>
<glyph glyph-name="foursuperior" horiz-adv-x="360" unicode="⁴" d="M221 420v144l-120 -144h120zM35 419l179 218h76v-217h42v-58h-42v-65h-69v65h-186v57z"/>
<glyph glyph-name="Euro" d="M49 273h64q-2 11 -2 22.5v23.5v21t2 21h-84l20 61h73q10 48 30 89t50.5 71.5t71.5 48t92 17.5q31 0 56.5 -6t46.5 -16t37.5 -22.5t30.5 -25.5l-50 -63q-17 18 -45.5 33.5t-73.5 15.5q-60 0 -98.5 -38t-53.5 -104h220l-20 -61h-210q-1 -11 -1 -21v-21v-23.5t1 -22.5h224 l-20 -60h-194q16 -66 54 -103.5t98 -37.5q45 0 73 15t46 33l50 -62q-12 -12 -28.5 -24t-37.5 -22t-47 -16.5t-58 -6.5q-51 0 -91.5 17t-71 47t-50.5 71t-30 89h-94z" unicode="€"/>
<glyph glyph-name="trademark" horiz-adv-x="888" unicode="™" d="M166 601h-136v66h347v-66h-135v-317h-76v317zM442 667h68l116 -186l114 186h73l12 -383h-71l-7 279l-107 -178h-31l-103 169l-8 -270h-66z"/>
<glyph glyph-name="partialdiff" horiz-adv-x="554" unicode="∂" d="M410 271q-11 9 -24 18.5t-30.5 17.5t-39 13t-49.5 5q-35 0 -61 -14.5t-42.5 -36.5t-24.5 -49t-8 -51q0 -55 30 -83t77 -28q62 0 108.5 49.5t63.5 158.5zM115 610q11 7 29 16t41 16.5t49.5 13t55.5 5.5q54 0 95.5 -20.5t69 -57.5t41.5 -87t14 -110q0 -92 -18.5 -166.5 t-54.5 -127t-88.5 -81t-119.5 -28.5q-46 0 -81 13.5t-58.5 37.5t-35.5 57t-12 72q0 48 16.5 92.5t46.5 78t72 54t93 20.5q46 0 83 -13.5t69 -37.5v41q0 34 -8 66.5t-25.5 57.5t-44.5 40t-64 15q-25 0 -46 -4.5t-37.5 -11t-27.5 -13t-15 -9.5z"/>
<glyph glyph-name="product" horiz-adv-x="724" unicode="∏" d="M127 581h-109v86h686v-86h-109v-702h-95v702h-278v-702h-95v702z"/>
<glyph glyph-name="summation" horiz-adv-x="557" unicode="∑" d="M42 -34l216 315l-215 300v86h474v-86h-363l213 -300l-215 -315h366v-87h-476v87z"/>
<glyph glyph-name="minus" d="M73 359h399v-78h-399v78z" unicode="−"/>
<glyph glyph-name="radical" horiz-adv-x="574" unicode="√" d="M102 292h-77v86h135l126 -273l191 627h89l-220 -732h-103z"/>
<glyph glyph-name="infinity" horiz-adv-x="683" unicode="∞" d="M376 317q9 -45 37.5 -73.5t63.5 -28.5q22 0 38 9t27 23t16.5 32.5t5.5 37.5t-5.5 37.5t-16.5 32.5t-27 23t-38 9q-35 0 -63.5 -28.5t-37.5 -73.5zM306 317q-9 45 -37.5 73.5t-63.5 28.5q-22 0 -38 -9t-27 -23t-16.5 -32.5t-5.5 -37.5t5.5 -37.5t16.5 -32.5t27 -23t38 -9 q35 0 63.5 28.5t37.5 73.5zM341 217q-17 -32 -53.5 -57t-86.5 -25q-36 0 -66 12.5t-51.5 36.5t-34 57.5t-12.5 75.5t12.5 75.5t34 57.5t51.5 36.5t66 12.5q50 0 86.5 -25t53.5 -57q18 32 54.5 57t87.5 25q35 0 64.5 -12.5t51.5 -36.5t34 -57.5t12 -75.5t-12.5 -75.5 t-34 -57.5t-51.5 -36.5t-66 -12.5q-51 0 -87 25t-53 57z"/>
<glyph glyph-name="approxequal" d="M469 406q-7 -8 -18.5 -18t-26.5 -20t-33.5 -16.5t-40.5 -6.5q-17 0 -33.5 5t-29.5 12q-20 11 -41.5 20t-52.5 9q-27 0 -46.5 -14.5t-29.5 -23.5q-11 14 -21 28.5t-21 28.5q7 7 18 17.5t26.5 20.5t35 17t42.5 7q26 0 45.5 -9.5t39.5 -20.5q13 -7 27.5 -12t31.5 -5 q32 0 53.5 14t33.5 25zM469 229q-7 -8 -18.5 -18t-26.5 -20t-33.5 -16.5t-40.5 -6.5q-17 0 -33.5 5t-29.5 12q-20 11 -41.5 20t-52.5 9q-27 0 -46.5 -14.5t-29.5 -23.5q-11 14 -21 28.5t-21 28.5q7 7 18 17.5t26.5 20.5t35 17t42.5 7q26 0 45.5 -9.5t39.5 -20.5 q13 -7 27.5 -12t31.5 -5q32 0 53.5 14t33.5 25z" unicode="≈"/>
<glyph glyph-name="notequal" d="M158 190h-85v78h131l56 96h-187v78h233l66 112l58 -30l-48 -82h90v-78h-136l-56 -96h192v-78h-238l-63 -109l-58 31z" unicode="≠"/>
<glyph glyph-name="lessequal" d="M51 78h399v-78h-399v78zM56 389l366 192l34 -68l-295 -153l295 -153l-34 -68l-366 192v58z" unicode="≤"/>
<glyph glyph-name="greaterequal" d="M95 78h399v-78h-399v78zM89 207l295 153l-295 153l34 68l366 -192v-58l-366 -192z" unicode="≥"/>
<glyph glyph-name="lozenge" horiz-adv-x="576" unicode="◊" d="M441 333l-154 259l-153 -259l153 -259zM35 333l202 334h100l202 -334l-202 -333h-100z"/>
<glyph glyph-name="cedilla.cap" d="M88 -141q17 -6 35.5 -10t38.5 -4q63 0 63 38q0 14 -13.5 22.5t-42.5 8.5q-37 0 -71 -12q3 14 5.5 28.5t4.5 28.5q18 5 37 9t49 4q54 0 82 -26t28 -61q0 -24 -10.5 -42.5t-28.5 -30.5t-41 -18.5t-48 -6.5q-43 0 -68.5 6.5t-30.5 8.5q3 14 6 28.5t5 28.5z" horiz-adv-x="345"/>
<glyph glyph-name="tilde.cap" d="M39 798q19 20 49.5 38.5t68.5 18.5q23 0 39.5 -7t31 -15t29 -15t34.5 -7q29 0 48.5 11.5t36.5 25.5q10 -14 20.5 -28.5t20.5 -29.5q-19 -20 -49 -39t-68 -19q-23 0 -39 7t-31 16t-30 16t-35 7q-29 0 -49 -11.5t-37 -25.5z" horiz-adv-x="457"/>
<glyph glyph-name="caron.cap" d="M122 870q19 -23 36.5 -46t36.5 -46l72 92h84l-113 -150h-88q-29 38 -56 75t-55 75h83z" horiz-adv-x="398"/>
<glyph glyph-name="dieresis.cap" d="M12 844h101v-98h-101v98zM207 844h101v-98h-101v98z" horiz-adv-x="320"/>
<glyph glyph-name="circumflex.cap" d="M155 870h88q29 -38 56 -75t55 -75h-83q-19 23 -36.5 46t-36.5 46l-72 -92h-84z" horiz-adv-x="398"/>
<glyph glyph-name="acute.cap" d="M115 870h114l-106 -150h-81z" horiz-adv-x="271"/>
<glyph glyph-name="grave.cap" d="M43 870h112l74 -150h-81z" horiz-adv-x="271"/>
<glyph glyph-name=".ttfautohint" horiz-adv-x="846"/>
</font>
</defs>
</svg>
